<?xml version="1.0" encoding="UTF-8" standalone="no"?>
<!-- Created with Inkscape (http://www.inkscape.org/) -->

<svg
   width="3in"
   height="3in"
   viewBox="0 0 76.2 76.2"
   version="1.1"
   id="svg5"
   inkscape:version="1.1.2 (b8e25be833, 2022-02-05)"
   sodipodi:docname="elephant_pre.svg"
   xmlns:inkscape="http://www.inkscape.org/namespaces/inkscape"
   xmlns:sodipodi="http://sodipodi.sourceforge.net/DTD/sodipodi-0.dtd"
   xmlns="http://www.w3.org/2000/svg"
   xmlns:svg="http://www.w3.org/2000/svg">
  <sodipodi:namedview
     id="namedview7"
     pagecolor="#ffffff"
     bordercolor="#666666"
     borderopacity="1.0"
     inkscape:pageshadow="2"
     inkscape:pageopacity="0.0"
     inkscape:pagecheckerboard="0"
     inkscape:document-units="mm"
     showgrid="false"
     units="in"
     inkscape:snap-nodes="false"
     inkscape:zoom="4"
     inkscape:cx="156.125"
     inkscape:cy="133.125"
     inkscape:window-width="2303"
     inkscape:window-height="1408"
     inkscape:window-x="1064"
     inkscape:window-y="0"
     inkscape:window-maximized="0"
     inkscape:current-layer="layer2" />
  <defs
     id="defs2">
    <inkscape:path-effect
       effect="bend_path"
       id="path-effect41338"
       is_visible="true"
       lpeversion="1"
       bendpath="m 44.91631,9.8386904 c 4.978541,-4.3863323 8.879406,-6.5436982 14.351491,-6.1718174 3.049898,0.2072699 3.912979,2.2763424 6.440102,2.9913179 1.826275,0.516691 3.815984,-0.1261254 4.501762,-0.060646"
       prop_scale="1"
       scale_y_rel="false"
       vertical="false"
       hide_knot="false"
       bendpath-nodetypes="cssc" />
    <clipPath
       clipPathUnits="userSpaceOnUse"
       id="clipPath838">
      <path
         d="M 0,1280 H 1024 V 0 H 0 Z"
         id="path836" />
    </clipPath>
    <clipPath
       clipPathUnits="userSpaceOnUse"
       id="clipPath846">
      <path
         d="M 38.4502,1145.12 H 985.55 V 134.88 H 38.4502 Z"
         id="path844" />
    </clipPath>
    <clipPath
       clipPathUnits="userSpaceOnUse"
       id="clipPath858">
      <path
         d="M 0,1280 H 1024 V 0 H 0 Z"
         id="path856" />
    </clipPath>
    <clipPath
       clipPathUnits="userSpaceOnUse"
       id="clipPath870">
      <path
         d="M 0,1280 H 1024 V 0 H 0 Z"
         id="path868" />
    </clipPath>
    <clipPath
       clipPathUnits="userSpaceOnUse"
       id="clipPath966">
      <path
         d="M 0,1280 H 1024 V 0 H 0 Z"
         id="path964" />
    </clipPath>
    <clipPath
       clipPathUnits="userSpaceOnUse"
       id="clipPath1018">
      <path
         d="M 0,1280 H 1024 V 0 H 0 Z"
         id="path1016" />
    </clipPath>
    <clipPath
       clipPathUnits="userSpaceOnUse"
       id="clipPath1118">
      <path
         d="M 0,1280 H 1024 V 0 H 0 Z"
         id="path1116" />
    </clipPath>
  </defs>
  <g
     id="layer2"
     inkscape:label="Layer 2"
     inkscape:groupmode="layer">
    <path
       style="fill:#ffe680;fill-opacity:1;fill-rule:evenodd;stroke:none;stroke-width:0.406893;stroke-linecap:round;stroke-linejoin:round;stroke-miterlimit:4;stroke-dasharray:none;stroke-dashoffset:0"
       d="m 160.42485,258.86941 c -4.07375,-0.35264 -8.14222,-1.19531 -11.09486,-2.29803 -5.65065,-2.11029 -10.67917,-6.0887 -14.04073,-11.10859 -2.76851,-4.13428 -4.01161,-7.56028 -5.00608,-13.79693 -0.24806,-1.55563 -0.60685,-3.6637 -0.79731,-4.68458 -0.19046,-1.02089 -0.74009,-4.32219 -1.2214,-7.33623 -0.4813,-3.01405 -1.08156,-6.43468 -1.3339,-7.6014 -1.51486,-7.00402 -4.73667,-14.68516 -9.44903,-22.52751 -2.32588,-3.87075 -4.22641,-7.35057 -6.43514,-11.7826 -1.86911,-3.75052 -2.38646,-4.9391 -3.57507,-8.2134 -2.12321,-5.8489 -2.76375,-9.38665 -2.78299,-15.37086 -0.0219,-6.81846 1.2723,-9.99344 6.57964,-16.14099 2.57852,-2.98673 3.9882,-4.31113 6.9982,-6.57482 1.55138,-1.16672 3.37024,-2.63839 4.04192,-3.27036 1.34991,-1.27013 3.70984,-4.08143 4.85722,-5.78623 3.14014,-4.66571 3.93009,-9.82703 2.40408,-15.70767 -1.52519,-5.87745 -5.31154,-10.07179 -10.77546,-11.936528 -1.16178,-0.396494 -1.4752,-0.421704 -5.12652,-0.41233 -4.36652,0.01121 -4.92055,0.127804 -5.57206,1.17262 -0.36247,0.581291 -0.40408,1.615161 -0.10182,2.529706 0.0942,0.285111 -0.0297,0.435822 -0.64017,0.778529 -3.14628,1.766243 -5.81588,5.235983 -6.89088,8.956243 -0.34204,1.18372 -0.40516,1.81527 -0.40516,4.05381 0,3.12355 0.31426,4.49549 1.60002,6.98495 2.46229,4.76745 7.07891,7.71056 12.68811,8.08871 l 1.91548,0.12914 -1.20824,0.88388 c -3.18348,2.32886 -6.56452,5.7371 -9.71991,9.79807 -2.09888,2.70126 -4.1793,6.75038 -4.57815,8.91047 l -0.12506,0.67731 -0.34089,-0.50054 c -0.976476,-1.43377 -2.472312,-4.87776 -4.709022,-10.84197 -1.367337,-3.64602 -2.687342,-7.32632 -2.933343,-8.17844 -0.96568,-3.34501 -1.285877,-6.65051 -0.997228,-10.29472 0.495136,-6.25114 1.684142,-10.51346 4.191619,-15.02602 1.973248,-3.551146 3.205688,-4.997011 6.686984,-7.844979 2.79159,-2.283739 7.92232,-7.262445 9.12005,-8.84982 1.10023,-1.458148 2.65828,-4.470882 3.25846,-6.300756 1.838,-5.603758 0.8636,-12.141239 -2.6693,-17.909061 l -0.47551,-0.776302 1.39495,0.118638 c 2.07186,0.176207 6.97229,-0.17 8.52829,-0.602509 1.59074,-0.442166 2.23027,-0.761485 4.70002,-2.346736 5.05074,-3.241897 10.03446,-4.959743 15.06995,-5.194478 2.63669,-0.122913 4.04556,0.04447 7.08617,0.841884 3.706,0.971917 5.96296,2.029039 8.21744,3.848908 0.85155,0.687394 1.90696,1.460012 2.34536,1.716929 2.8462,1.667988 9.03716,2.621984 13.01258,2.005175 0.68246,-0.105886 1.27486,-0.158485 1.31646,-0.116887 0.0416,0.0416 -0.35817,0.723743 -0.88838,1.515878 -2.47221,3.693524 -3.80393,7.878532 -3.80688,11.963394 -0.003,4.151305 1.28733,7.406333 4.87026,12.28598 1.22806,1.672507 2.65182,3.085652 6.43945,6.391423 3.67927,3.211209 7.03794,6.584128 7.982,8.015879 1.67869,2.54586 3.0078,5.81768 3.68692,9.07597 0.56264,2.69938 0.80393,8.0152 0.56182,12.37697 -0.21857,3.93773 -0.53478,6.15958 -1.2085,8.4915 -1.11096,3.8453 -3.5824,9.58665 -6.00152,13.942 l -1.00733,1.81359 -0.72846,-2.17945 c -0.47191,-1.41194 -1.08145,-2.77099 -1.73082,-3.85918 -2.12388,-3.55904 -6.03585,-7.88229 -10.26228,-11.34117 -1.48166,-1.21259 -2.84547,-2.37302 -3.03069,-2.57874 l -0.33676,-0.37404 h 1.94928 c 4.03543,0 7.5627,-1.44508 10.44926,-4.28096 2.96094,-2.90895 4.45135,-6.50149 4.44881,-10.72353 -0.003,-4.18959 -1.40432,-7.65891 -4.28657,-10.60891 -0.97361,-0.996489 -3.47625,-2.847643 -3.84984,-2.847643 -0.0755,0 -0.10007,-0.45741 -0.0545,-1.016466 0.0994,-1.220691 -0.32033,-2.047212 -1.2335,-2.428757 -0.8958,-0.374289 -4.12758,-0.797418 -6.09053,-0.797418 -2.7787,0 -4.64368,0.680488 -7.25244,2.646248 -2.52697,1.904131 -4.97995,4.925986 -6.22168,7.664566 -1.32739,2.92749 -1.94227,6.60223 -1.61227,9.63556 0.34573,3.17806 1.25538,5.34979 3.75157,8.95662 1.84078,2.65982 6.06403,6.9371 10.14564,10.27546 6.10712,4.99503 9.97323,9.94204 11.03464,14.11972 0.824,3.24329 1.35816,9.82185 1.06843,13.15858 -0.33138,3.81634 -0.94009,5.67947 -4.19094,12.82759 -3.42715,7.53578 -5.18874,10.83506 -9.54834,17.883 -5.09518,8.23713 -8.89398,19.09584 -10.658,30.46543 -0.44267,2.85317 -0.63074,7.3393 -0.36683,8.75045 0.46501,2.4864 2.29689,4.90329 4.4967,5.93271 1.5721,0.73568 3.65865,0.96798 6.51802,0.72571 2.72187,-0.23063 4.18576,-0.68059 5.86226,-1.80191 2.27596,-1.52224 3.97646,-3.66955 4.60637,-5.81667 0.35088,-1.19601 0.3534,-1.78384 0.0132,-3.08977 -0.32556,-1.24991 -0.19432,-2.54481 0.33668,-3.32201 0.6283,-0.91963 2.05855,-1.59739 3.57646,-1.6948 1.20006,-0.077 1.40281,-0.0377 2.44209,0.47397 1.38828,0.68344 2.70855,2.07028 3.45008,3.62401 0.56013,1.17364 1.06974,3.86549 1.06974,5.65057 0,2.22144 0.59745,3.81802 1.96084,5.24001 1.12673,1.17516 2.49169,2.01255 4.16162,2.55315 1.88986,0.61177 3.43959,1.56202 4.63736,2.84346 1.92964,2.06443 2.66707,4.1746 2.32135,6.64256 -0.20553,1.46723 -0.45963,2.35445 -0.84322,2.94421 -0.36963,0.5683 -2.44992,1.17951 -4.03814,1.1864 -1.17952,0.005 -1.38289,-0.0568 -3.27037,-0.99664 -2.63414,-1.3116 -3.40761,-1.89084 -3.9475,-2.95626 -0.59258,-1.16941 -1.18476,-1.61008 -2.16361,-1.61008 -2.69415,0 -3.23273,2.82772 -1.03586,5.43855 l 0.45372,0.53921 -1.10684,0.61511 c -7.33764,4.07772 -12.17201,5.41546 -19.93355,5.51593 -2.09038,0.0271 -4.15867,0.0182 -4.59619,-0.0197 z"
       id="path11495"
       transform="scale(0.26458333)"
       inkscape:label="yellow trunk" />
    <path
       style="fill:#aaeeff;fill-opacity:1;fill-rule:evenodd;stroke:none;stroke-width:0.406893;stroke-linecap:round;stroke-linejoin:round;stroke-miterlimit:4;stroke-dasharray:none;stroke-dashoffset:0"
       d="m 57.364038,180.54023 c 0,-0.28783 4.238036,-8.67568 5.109541,-10.11271 1.435118,-2.36638 3.62697,-5.17497 6.909463,-8.85362 2.128524,-2.38541 2.299909,-2.62756 2.299909,-3.24956 0,-0.31393 -0.437984,-2.31645 -0.973299,-4.45005 -1.090797,-4.34757 -2.25419,-9.81857 -2.661831,-12.51759 -0.563245,-3.72926 -0.496257,-9.52328 0.197496,-17.08268 0.371832,-4.05161 0.352428,-4.48343 -0.230483,-5.12905 -0.440225,-0.48758 -0.87846,-0.63887 -4.640388,-1.60195 -4.757837,-1.21805 -8.885855,-2.37204 -11.313709,-3.16275 -2.480132,-0.80773 -11.518811,-4.46089 -11.577201,-4.67915 -0.0876,-0.32742 -1.666897,-13.649818 -2.055009,-17.335296 -0.46433,-4.409247 -0.653493,-13.488677 -0.346548,-16.633623 0.439679,-4.504937 1.623575,-7.310008 4.618783,-10.943542 2.972911,-3.606483 6.209374,-6.013604 11.523387,-8.570523 4.668092,-2.246124 9.674297,-3.695745 15.602646,-4.517978 2.833391,-0.392978 10.496041,-0.548361 13.283003,-0.269353 6.217563,0.622452 11.519805,2.421075 17.211822,5.838584 4.97591,2.987555 6.95973,4.886721 8.77771,8.403154 1.87205,3.621016 2.48574,8.098202 1.57502,11.490485 -0.37851,1.409847 -1.70205,4.141553 -2.65086,5.471191 -1.01993,1.429309 -5.82872,6.094403 -8.679888,8.420523 -1.261258,1.028994 -2.863189,2.481614 -3.559848,3.228045 -3.488238,3.737447 -6.695016,10.218723 -7.908215,15.983423 -0.919808,4.37061 -1.25104,10.15991 -0.796393,13.91942 0.26217,2.1679 1.187207,5.70107 2.244721,8.57367 3.979895,10.8109 5.529285,14.46929 7.120128,16.81191 0.414671,0.61063 1.381752,1.85693 2.149073,2.76956 0.85661,1.01883 1.374021,1.78495 1.340446,1.98478 -0.03094,0.18415 -1.781677,1.62954 -4.032156,3.3289 -2.187612,1.65189 -6.085538,4.73153 -8.662058,6.84365 -5.665584,4.64439 -7.309128,5.90129 -10.521586,8.04637 -5.423794,3.62166 -8.300027,5.15885 -11.859645,6.33835 -2.736521,0.90676 -7.494031,1.95895 -7.494031,1.65741 z"
       id="path13201"
       transform="scale(0.26458333)"
       inkscape:label="left blue ear" />
    <path
       style="fill:#ff8080;fill-opacity:1;fill-rule:evenodd;stroke:none;stroke-width:0.406893;stroke-linecap:round;stroke-linejoin:round;stroke-miterlimit:4;stroke-dasharray:none;stroke-dashoffset:0"
       d="m 228.21872,180.66144 c -5.33148,-0.60207 -10.67423,-2.5448 -16.44024,-5.978 -4.29896,-2.55969 -15.25723,-10.35664 -19.85925,-14.13012 -2.44935,-2.00836 -7.09919,-6.07115 -7.09919,-6.20289 0,-0.051 0.82599,-1.3303 1.83554,-2.84282 2.72266,-4.07909 4.76881,-8.00009 6.90811,-13.23786 2.74842,-6.72913 3.44864,-10.6261 3.45205,-19.21173 0.002,-5.33462 -0.25349,-8.21862 -0.98396,-11.10223 -0.94718,-3.73905 -2.64436,-7.50451 -4.54683,-10.087837 -1.29002,-1.751695 -4.81902,-5.235578 -8.97307,-8.858341 -3.68357,-3.212449 -4.49241,-4.070039 -6.061,-6.426239 -1.56477,-2.350473 -2.53252,-4.405809 -2.88775,-6.133077 -0.69012,-3.3557 0.67639,-8.119366 3.44096,-11.99526 1.29421,-1.814454 4.62768,-5.163087 6.65018,-6.680425 3.97321,-2.980811 8.51749,-4.779851 14.6008,-5.780331 7.49149,-1.232074 14.0789,-0.899529 22.36225,1.128892 9.57482,2.344675 15.45664,5.232103 19.53999,9.592312 1.4878,1.588671 3.5149,4.447811 4.40845,6.217914 1.42585,2.824594 2.44854,6.922036 2.60557,10.439339 0.18276,4.093574 -0.76167,15.494709 -2.1595,26.069263 -1.33407,10.09226 -1.01705,18.71953 0.9786,26.63089 0.715,2.83446 1.37293,4.62639 3.03274,8.25993 2.12761,4.65762 3.89558,9.74258 4.63942,13.34372 0.40563,1.96381 0.60375,5.40703 0.43531,7.56535 -0.45784,5.86622 -2.61911,10.94685 -6.15423,14.46709 -2.54866,2.53792 -4.74406,3.51247 -10.17901,4.51848 -2.77612,0.51386 -7.09848,0.71037 -9.54594,0.43398 z"
       id="path13597"
       transform="scale(0.26458333)"
       inkscape:label="right pink ear" />
    <g
       id="g14098"
       inkscape:label="white tusks">
      <path
         style="fill:#ffffff;fill-opacity:1;fill-rule:evenodd;stroke:none;stroke-width:0.406893;stroke-linecap:round;stroke-linejoin:round;stroke-miterlimit:4;stroke-dasharray:none;stroke-dashoffset:0"
         d="m 199.66928,207.07151 c -2.49086,-0.84755 -7.9756,-3.90569 -11.22532,-6.25891 -5.12559,-3.71161 -9.88823,-8.29418 -12.24506,-11.78208 -0.80032,-1.18441 -1.45514,-2.21206 -1.45514,-2.28366 0,-0.0716 0.86707,-1.84699 1.92682,-3.94531 1.94924,-3.85954 6.0173,-12.70033 6.04103,-13.12849 0.007,-0.12793 0.62942,1.63682 1.38296,3.92166 1.87946,5.6988 2.86128,8.0972 5.40434,13.20174 3.14738,6.31755 5.4589,10.22442 8.40071,14.19864 2.30491,3.11382 4.41651,6.09147 4.41897,6.23138 0.004,0.23263 -1.82458,0.12565 -2.64931,-0.15497 z"
         id="path14018"
         transform="scale(0.26458333)" />
      <path
         style="fill:#ffffff;fill-opacity:1;fill-rule:evenodd;stroke:none;stroke-width:0.406893;stroke-linecap:round;stroke-linejoin:round;stroke-miterlimit:4;stroke-dasharray:none;stroke-dashoffset:0"
         d="m 82.693151,207.06715 c -0.283405,-0.11488 0.147514,-0.78759 3.040287,-4.74622 5.095796,-6.97337 7.821379,-11.63794 11.672145,-19.97577 2.273614,-4.92291 3.556087,-8.14828 4.343907,-10.92477 l 0.59189,-2.08595 0.34251,0.9369 c 1.73792,4.75388 3.11145,7.79802 6.0137,13.32808 l 1.67877,3.19879 -1.1607,1.73571 c -1.48625,2.22253 -3.53497,4.3515 -6.8613,7.13007 -3.493982,2.91861 -5.058054,4.06406 -9.795016,7.17336 -4.308849,2.8283 -5.453249,3.46877 -6.920276,3.87298 -1.093402,0.30126 -2.625259,0.48681 -2.945917,0.35682 z"
         id="path14057"
         transform="scale(0.26458333)" />
    </g>
    <path
       style="fill:#ff9955;fill-opacity:1;fill-rule:evenodd;stroke:none;stroke-width:0.406893;stroke-linecap:round;stroke-linejoin:round;stroke-miterlimit:4;stroke-dasharray:none;stroke-dashoffset:0"
       d="m 48.030886,180.81192 c -4.194602,-0.52616 -7.664904,-2.08534 -10.835804,-4.86845 -3.978196,-3.49168 -5.920501,-7.42443 -6.544291,-13.25077 -0.315469,-2.94657 0.146656,-6.62043 1.521735,-12.09767 0.533157,-2.12368 2.649177,-8.04904 4.701559,-13.16549 1.734011,-4.32277 2.568764,-7.01757 3.232333,-10.43483 0.738508,-3.80319 0.892157,-5.3151 0.89911,-8.84728 l 0.0067,-3.38655 0.618718,0.2653 c 5.989363,2.56823 11.248367,4.30048 19.501951,6.4237 l 2.973331,0.76488 -0.103334,0.80866 c -0.284774,2.22857 -0.625522,8.833 -0.626882,12.15034 -0.0022,5.41592 0.6091,9.41819 2.851205,18.66666 l 0.889382,3.66861 -2.021564,2.34179 c -2.923948,3.38713 -4.274879,5.10959 -5.621708,7.1678 -1.229283,1.87858 -4.293276,7.78547 -6.093247,11.74681 l -1.024138,2.25391 -1.517605,-0.0228 c -0.834683,-0.0126 -2.098019,-0.0956 -2.807417,-0.18461 z"
       id="path11682"
       transform="scale(0.26458333)"
       inkscape:label="orange patch" />
    <g
       id="g12319"
       inkscape:label="outlines"
       transform="matrix(1.0960234,0,0,1.0960234,-14.944922,-18.344486)"
       style="display:inline;stroke-width:0.729911;stroke-miterlimit:4;stroke-dasharray:none">
      <path
         style="fill:none;stroke:#000000;stroke-width:0.729911;stroke-linecap:round;stroke-linejoin:miter;stroke-miterlimit:4;stroke-dasharray:none;stroke-opacity:1"
         d="m 40.208117,40.101803 c 0,0 1.213891,-0.164473 1.786083,0 0.602913,0.173304 1.179573,0.529046 1.594718,0.999357 0.444869,0.503985 0.715825,1.169997 0.850514,1.828607 0.133555,0.65306 0.13406,1.362175 -0.06379,1.998713 -0.237505,0.76412 -0.770203,1.417698 -1.297036,2.019972 -0.691911,0.790991 -1.694393,1.264903 -2.402707,2.041239 -0.805798,0.883181 -1.67217,1.804249 -2.062499,2.934277 -0.38881,1.125631 -0.315811,2.383792 -0.187481,3.567747 0.103141,0.95157 0.423548,1.873127 0.76158,2.768592 0.439958,1.165475 1.05405,2.258727 1.637241,3.359537 0.4667,0.880926 1.054685,1.696448 1.488403,2.594072 0.474685,0.982411 0.909281,1.992344 1.211982,3.040595 0.400572,1.38718 0.503807,2.843682 0.788009,4.259294 0.223658,1.114043 0.289048,2.280856 0.721656,3.331554 0.371288,0.901768 0.897449,1.763605 1.573456,2.466496 0.723689,0.75247 1.61118,1.379624 2.572808,1.786083 1.157427,0.489218 2.443994,0.677492 3.699743,0.722937 1.177247,0.0426 2.380062,-0.08668 3.508375,-0.425257 1.222782,-0.366926 3.18317,-1.570412 3.18317,-1.570412"
         id="path1592"
         sodipodi:nodetypes="cssssssssssssssssssc" />
      <path
         style="fill:none;stroke:#000000;stroke-width:0.729911;stroke-linecap:round;stroke-linejoin:miter;stroke-miterlimit:4;stroke-dasharray:none;stroke-opacity:1"
         d="m 55.730026,40.101803 c 0,0 -1.136946,-0.248132 -1.679769,-0.106313 -0.555411,0.145108 -1.045747,0.523943 -1.445876,0.935567 -0.456673,0.469792 -0.830601,1.052754 -1.02062,1.679768 -0.193402,0.638178 -0.235754,1.349123 -0.08505,1.99871 0.144072,0.621 0.538224,1.165025 0.914305,1.679768 0.405151,0.554531 0.927035,1.015044 1.424612,1.488403 0.556989,0.529879 1.219781,0.946932 1.743556,1.509665 0.620999,0.667187 1.261867,1.359493 1.637244,2.190078 0.298261,0.659953 0.377606,1.405351 0.446519,2.126287 0.08229,0.860883 0.123141,1.745283 -0.04253,2.594073 -0.19945,1.021851 -0.707495,1.960108 -1.126932,2.913015 -0.366489,0.832615 -0.777076,1.646221 -1.211985,2.445231 -0.477096,0.876515 -1.0851,1.679985 -1.530927,2.572811 -0.458641,0.918487 -0.851848,1.872962 -1.169458,2.849227 -0.295691,0.90889 -0.506635,1.84559 -0.680413,2.785438 -0.09223,0.498793 -0.177157,1.002615 -0.191365,1.509664 -0.01134,0.40483 -0.07171,0.838567 0.08505,1.211985 0.12827,0.305548 0.367154,0.587512 0.659149,0.744202 0.315308,0.169201 0.705325,0.152338 1.063146,0.148838 0.358871,-0.0035 0.733009,-0.02935 1.063143,-0.170103 0.335118,-0.142881 0.637306,-0.380325 0.871778,-0.659148 0.179536,-0.213495 0.337652,-0.468918 0.382733,-0.744202 0.03823,-0.233452 -0.114703,-0.465263 -0.106314,-0.701675 0.01031,-0.29041 0.03642,-0.604681 0.191365,-0.850516 0.158774,-0.251902 0.428489,-0.434372 0.701675,-0.552834 0.302562,-0.131201 0.65191,-0.197443 0.978093,-0.148841 0.373127,0.0556 0.733959,0.243812 1.020619,0.489048 0.313714,0.268381 0.543041,0.63946 0.701675,1.020617 0.146885,0.352926 0.154021,0.749181 0.212628,1.126934 0.04488,0.289285 -0.02406,0.609667 0.106314,0.871778 0.13617,0.27376 0.399153,0.476992 0.659152,0.637887 0.217304,0.134474 0.496116,0.137438 0.722936,0.255154 0.347369,0.180278 0.690233,0.393899 0.956832,0.680413 0.288155,0.309679 0.537678,0.679214 0.659148,1.084405 0.112014,0.373649 0.110824,0.785408 0.04253,1.169461 -0.05899,0.331738 -0.148068,0.693777 -0.382733,0.935567 -0.194464,0.200368 -0.494687,0.272062 -0.765464,0.340206 -0.275705,0.06939 -0.569617,0.107645 -0.850516,0.06379 -0.317297,-0.04954 -0.60789,-0.213751 -0.89304,-0.361469 -0.314226,-0.16278 -0.651523,-0.315442 -0.893043,-0.574098 -0.110411,-0.118245 -0.233892,-0.425259 -0.233892,-0.425259"
         id="path1594"
         sodipodi:nodetypes="cssssssssssssssssssssssssssssssssssssssssc" />
      <path
         style="fill:none;stroke:#000000;stroke-width:0.729911;stroke-linecap:round;stroke-linejoin:miter;stroke-miterlimit:4;stroke-dasharray:none;stroke-opacity:1"
         d="m 38.215808,54.435083 c 0,0 -1.517225,1.12509 -2.366582,1.805252 -1.055854,0.845525 -2.061066,1.763011 -3.189433,2.50902 -0.971076,0.642018 -1.959422,1.305849 -3.061856,1.679768 -1.195142,0.405363 -2.481027,0.618341 -3.742267,0.574099 -0.835136,-0.02929 -1.702251,-0.17036 -2.445232,-0.552837 -0.861393,-0.443434 -1.644463,-1.120252 -2.168815,-1.934921 -0.478038,-0.742712 -0.704838,-1.650833 -0.786726,-2.530285 -0.08534,-0.9165 0.121518,-1.843869 0.318943,-2.742911 0.185563,-0.845022 0.521737,-1.650069 0.80799,-2.466497 0.307956,-0.878326 0.740374,-1.715455 0.978093,-2.615334 0.229156,-0.867464 0.388014,-1.761411 0.425257,-2.657859 0.03895,-0.93744 -0.119484,-1.873089 -0.212629,-2.806703 -0.08012,-0.803038 -0.217865,-1.599637 -0.29768,-2.402705 -0.112471,-1.13163 -0.264813,-2.264897 -0.255155,-3.402062 0.0092,-1.081841 -0.06303,-2.211985 0.297681,-3.23196 0.289693,-0.819147 0.84119,-1.544892 1.445876,-2.168813 0.611826,-0.631289 1.368158,-1.124228 2.147551,-1.530927 0.953989,-0.497805 1.989507,-0.853924 3.040594,-1.084408 1.244182,-0.272826 2.533012,-0.382425 3.806055,-0.340206 0.960806,0.03186 1.930624,0.163091 2.849227,0.446521 0.884594,0.272936 1.720334,0.705981 2.509022,1.19072 0.542307,0.333309 1.094034,0.687336 1.509665,1.169459 0.435116,0.504725 0.778711,1.107695 0.978093,1.743556 0.198138,0.631894 0.28099,1.321314 0.191365,1.977451 -0.08533,0.624679 -0.345208,1.23083 -0.680413,1.764818 -0.413221,0.658269 -1.039764,1.156881 -1.594715,1.70103 -0.551827,0.541087 -1.239576,0.948643 -1.722294,1.552192 -0.533183,0.666647 -0.947156,1.436215 -1.254512,2.232604 -0.274862,0.712194 -0.428169,1.47364 -0.51031,2.232602 -0.08389,0.775144 -0.103858,1.569351 0.02127,2.338916 0.169786,1.044221 0.607907,2.028277 0.978093,3.01933 0.304483,0.815154 0.57662,1.654342 1.020617,2.402708 0.308946,0.520734 0.974925,1.249216 0.974925,1.249216"
         id="path1596"
         sodipodi:nodetypes="cssssssssssssssssssssssssssssssssc" />
      <path
         style="fill:none;stroke:#000000;stroke-width:0.729911;stroke-linecap:round;stroke-linejoin:miter;stroke-miterlimit:4;stroke-dasharray:none;stroke-opacity:1"
         d="m 40.848159,61.994052 c 0,0 -0.45038,0.754413 -0.810145,1.177983 -0.451265,0.531298 -0.934037,0.919488 -1.469717,1.365543 -0.658767,0.548549 -1.393032,1.099155 -2.123711,1.547472 -0.582273,0.357261 -1.121806,0.8112 -1.764818,1.041881 -0.344398,0.123553 -0.719078,0.190338 -1.084408,0.170104 -0.161375,-0.0089 -0.341733,-0.02642 -0.467783,-0.127577 -0.118684,-0.09525 -0.205488,-0.251985 -0.212628,-0.403995 -0.0061,-0.130161 0.08726,-0.246631 0.148839,-0.361469 0.161633,-0.301448 0.374511,-0.572737 0.574098,-0.850516 0.374707,-0.521507 0.759186,-1.007648 1.109318,-1.545962 0.3701,-0.569014 0.713455,-1.175003 1.038234,-1.771048 0.320178,-0.587601 0.604376,-1.193384 0.881652,-1.802406 0.310387,-0.681748 0.638667,-1.352398 0.861904,-2.06744 0.198256,-0.635027 0.365112,-1.281311 0.489046,-1.934921 0.114479,-0.603745 0.198815,-1.6766 0.198815,-1.6766"
         id="path1598"
         sodipodi:nodetypes="cssssssssssssssc" />
      <path
         style="fill:none;stroke:#000000;stroke-width:0.729911;stroke-linecap:round;stroke-linejoin:miter;stroke-miterlimit:4;stroke-dasharray:none;stroke-opacity:1"
         d="m 55.155927,61.875 c 0,0 0.56627,0.911664 0.918551,1.342761 0.355407,0.434923 0.763363,0.860657 1.186474,1.230047 0.455305,0.397496 0.914867,0.792263 1.40335,1.148197 0.443302,0.323013 0.905722,0.62114 1.382088,0.89304 0.454216,0.259257 0.914271,0.516397 1.40335,0.701675 0.205788,0.07796 0.417895,0.164656 0.637887,0.170103 0.202897,0.005 0.452534,0.0092 0.640468,-0.06744 0.147483,-0.06014 0.348563,-0.105836 0.403995,-0.255153 0.09285,-0.250121 -0.143925,-0.580276 -0.30155,-0.795535 -0.204944,-0.27988 -0.407417,-0.579345 -0.615334,-0.859324 -0.311926,-0.420036 -0.634913,-0.833429 -0.914304,-1.275773 -0.328655,-0.52034 -0.648416,-1.057967 -0.938146,-1.600945 -0.379041,-0.710355 -0.738981,-1.424441 -1.060567,-2.162587 -0.291922,-0.670055 -0.523257,-1.365808 -0.744199,-2.062498 -0.226624,-0.714609 -0.447043,-1.433952 -0.595363,-2.168816 -0.08627,-0.427428 -0.170103,-1.297035 -0.170103,-1.297035"
         id="path1600"
         sodipodi:nodetypes="csssssssssssssssc" />
      <path
         style="fill:none;stroke:#000000;stroke-width:0.729911;stroke-linecap:round;stroke-linejoin:miter;stroke-miterlimit:4;stroke-dasharray:none;stroke-opacity:1"
         d="m 57.813787,54.390462 c 0,0 0.938216,0.849805 1.424613,1.254511 0.582026,0.484275 1.17839,0.951704 1.786083,1.403352 0.583931,0.433987 1.184043,0.846014 1.786083,1.254509 0.610015,0.413906 1.206929,0.851345 1.849872,1.211985 0.649801,0.364487 1.314599,0.716963 2.019975,0.956831 0.665973,0.226469 1.362021,0.382171 2.062498,0.446519 0.706109,0.06487 1.426638,0.05147 2.12629,-0.06379 0.789755,-0.1301 1.61458,-0.282419 2.29639,-0.701675 0.619161,-0.380732 1.125824,-0.956216 1.509667,-1.573453 0.406117,-0.653054 0.646456,-1.412682 0.786726,-2.168813 0.137059,-0.738817 0.138953,-1.508656 0.04253,-2.253867 -0.120056,-0.927859 -0.454887,-1.817846 -0.765463,-2.700387 -0.283606,-0.805901 -0.748963,-1.543352 -0.999358,-2.360182 -0.268875,-0.877117 -0.442557,-1.787311 -0.531572,-2.700385 -0.09284,-0.952316 -0.0571,-1.915366 0,-2.870491 0.05325,-0.890718 0.224018,-1.770613 0.318945,-2.657858 0.08861,-0.828183 0.18638,-1.656205 0.233891,-2.487758 0.05944,-1.040402 0.206444,-2.093357 0.06379,-3.125645 C 73.721313,34.505388 73.511236,33.756948 73.165596,33.085049 72.777155,32.329948 72.24154,31.63649 71.613407,31.065077 71.081008,30.580754 70.434842,30.225848 69.784798,29.916881 68.966977,29.52817 68.089184,29.269728 67.211989,29.045102 66.3823,28.83264 65.535459,28.666618 64.681705,28.598581 c -0.90446,-0.07208 -1.821802,-0.07373 -2.72165,0.04253 -0.941073,0.121589 -1.889452,0.31263 -2.764173,0.680414 -0.707109,0.29731 -1.38021,0.705378 -1.956187,1.211982 -0.733928,0.645531 -1.437394,1.389003 -1.849871,2.275131 -0.334952,0.719581 -0.552394,1.55229 -0.446521,2.338916 0.113736,0.84505 0.620861,1.610146 1.126934,2.296393 0.508862,0.690028 1.263894,1.159557 1.871133,1.764818 0.546822,0.54504 1.172557,1.033345 1.594716,1.679769 0.420341,0.64364 0.708958,1.379916 0.893042,2.126289 0.197607,0.801205 0.21062,1.641282 0.21263,2.466494 0.0021,0.874652 -0.03271,1.759385 -0.21263,2.615334 -0.160455,0.763344 -0.462824,1.492418 -0.765463,2.21134 -0.289002,0.686527 -0.625484,1.354462 -0.999358,1.998713 -0.269359,0.464154 -0.89304,1.339561 -0.89304,1.339561"
         id="path1602"
         sodipodi:nodetypes="cssssssssssssssssssssssssssssssssssssc" />
      <path
         style="fill:none;stroke:#000000;stroke-width:0.729911;stroke-linecap:round;stroke-linejoin:miter;stroke-miterlimit:4;stroke-dasharray:none;stroke-opacity:1"
         d="m 57.53737,30.1933 c 0,0 -0.886713,0.434394 -1.530926,0.574095 -0.524095,0.113653 -1.058705,0.229447 -1.594718,0.21263 -0.657147,-0.02062 -1.331358,-0.122004 -1.934922,-0.38273 -0.44777,-0.193426 -0.76121,-0.619368 -1.190723,-0.850517 -0.52158,-0.280697 -1.085698,-0.487119 -1.658503,-0.637886 -0.512783,-0.134969 -1.04321,-0.235861 -1.573454,-0.233892 -0.688664,0.0026 -1.379834,0.127089 -2.041239,0.318942 -0.563999,0.163599 -1.091355,0.437802 -1.615979,0.701675 -0.482217,0.242543 -0.890652,0.639169 -1.40335,0.80799 -0.474311,0.156181 -0.989172,0.158537 -1.488401,0.170103 -0.52554,0.01217 -1.05472,-0.02115 -1.573456,-0.106315 -0.520805,-0.08551 -1.382086,-0.489044 -1.382086,-0.489044"
         id="path1604"
         sodipodi:nodetypes="csssssssssssc" />
    </g>
    <g
       id="g6044"
       inkscape:label="left eye outline"
       transform="matrix(1.0960234,0,0,1.0960234,-14.551858,-18.11865)"
       style="display:inline">
      <circle
         style="display:inline;fill:#ffffff;fill-opacity:1;fill-rule:evenodd;stroke:none;stroke-width:0.555645;stroke-linecap:round;stroke-linejoin:round;stroke-miterlimit:4;stroke-dasharray:none"
         id="circle3938"
         cx="41.043488"
         cy="43.523964"
         r="3.3455353"
         inkscape:label="left white" />
      <circle
         style="fill:none;fill-rule:evenodd;stroke:#000000;stroke-width:0.555804;stroke-linecap:round;stroke-linejoin:round;stroke-miterlimit:4;stroke-dasharray:none"
         id="path5786"
         cx="41.043488"
         cy="43.523964"
         r="3.3455353" />
      <circle
         style="fill:none;fill-rule:evenodd;stroke:#000000;stroke-width:0.423904;stroke-linecap:round;stroke-linejoin:round;stroke-miterlimit:4;stroke-dasharray:none"
         id="path5786-4"
         cx="41.010422"
         cy="43.52396"
         r="2.55159" />
    </g>
    <g
       id="g27343"
       inkscape:label="left eye holes">
      <ellipse
         style="fill:#ffffff;fill-opacity:1;fill-rule:evenodd;stroke:#000000;stroke-width:0.134966;stroke-linecap:round;stroke-linejoin:round;stroke-miterlimit:4;stroke-dasharray:none;stroke-dashoffset:0;stroke-opacity:1"
         id="path24300-0-57-6"
         cx="32.270901"
         cy="30.133562"
         rx="0.21410842"
         ry="0.21391831" />
      <ellipse
         style="fill:#ffffff;fill-opacity:1;fill-rule:evenodd;stroke:#000000;stroke-width:0.134966;stroke-linecap:round;stroke-linejoin:round;stroke-miterlimit:4;stroke-dasharray:none;stroke-dashoffset:0;stroke-opacity:1"
         id="path24300-0-57-5"
         cx="29.926855"
         cy="31.481283"
         rx="0.21410842"
         ry="0.21391831" />
      <ellipse
         style="fill:#ffffff;fill-opacity:1;fill-rule:evenodd;stroke:#000000;stroke-width:0.134966;stroke-linecap:round;stroke-linejoin:round;stroke-miterlimit:4;stroke-dasharray:none;stroke-dashoffset:0;stroke-opacity:1"
         id="path24300-0-57-27"
         cx="28.521257"
         cy="29.033886"
         rx="0.21410842"
         ry="0.21391831" />
      <ellipse
         style="fill:#ffffff;fill-opacity:1;fill-rule:evenodd;stroke:#000000;stroke-width:0.134966;stroke-linecap:round;stroke-linejoin:round;stroke-miterlimit:4;stroke-dasharray:none;stroke-dashoffset:0;stroke-opacity:1"
         id="path24300-0-57-9"
         cx="31.171223"
         cy="27.892872"
         rx="0.21410842"
         ry="0.21391831" />
    </g>
    <g
       id="g24270"
       inkscape:label="left eye stitches"
       transform="matrix(0.69575692,0.20081023,-0.20081023,0.69575692,13.732015,12.729588)">
      <path
         style="fill:none;stroke:#000000;stroke-width:0.3;stroke-linecap:round;stroke-linejoin:miter;stroke-miterlimit:4;stroke-dasharray:none;stroke-opacity:1"
         d="m 28.95197,13.470384 c 0,0 -0.936467,1.442991 -1.052372,2.26845 -0.09106,0.648541 0.101518,1.318236 0.304019,1.941045 0.111035,0.341497 0.491107,0.958829 0.491107,0.958829"
         id="path21758"
         sodipodi:nodetypes="cssc" />
      <path
         style="fill:none;stroke:#000000;stroke-width:0.3;stroke-linecap:round;stroke-linejoin:miter;stroke-miterlimit:4;stroke-dasharray:none;stroke-opacity:1"
         d="m 31.197036,15.949309 c 0,0 -1.909664,-0.386862 -2.876489,-0.374177 -0.80478,0.01056 -2.38538,0.374177 -2.38538,0.374177"
         id="path21760"
         sodipodi:nodetypes="csc" />
      <path
         style="fill:none;stroke:#000000;stroke-width:0.3;stroke-linecap:round;stroke-linejoin:miter;stroke-miterlimit:4;stroke-dasharray:none;stroke-opacity:1"
         d="m 25.935166,15.972695 c 0,0 1.651384,0.1281 2.478925,0.140316 0.865507,0.01278 2.595856,-0.07016 2.595856,-0.07016"
         id="path21762"
         sodipodi:nodetypes="csc" />
      <path
         style="fill:none;stroke:#000000;stroke-width:0.3;stroke-linecap:round;stroke-linejoin:miter;stroke-miterlimit:4;stroke-dasharray:none;stroke-opacity:1"
         d="m 28.858427,13.517156 c 0,0 -0.505955,1.380758 -0.561266,2.104748 -0.07705,1.008567 0.327406,3.016804 0.327406,3.016804"
         id="path21764"
         sodipodi:nodetypes="csc"
         inkscape:label="path21764" />
    </g>
    <g
       id="g6040"
       inkscape:label="right eye outline"
       transform="matrix(1.0960234,0,0,1.0960234,-15.319099,-18.297714)">
      <circle
         style="fill:#ffffff;fill-opacity:1;fill-rule:evenodd;stroke:none;stroke-width:0.555804;stroke-linecap:round;stroke-linejoin:round;stroke-miterlimit:4;stroke-dasharray:none"
         id="circle3995"
         cx="54.967186"
         cy="43.623177"
         r="3.3455353"
         inkscape:label="right white" />
      <circle
         style="fill:none;fill-rule:evenodd;stroke:#000000;stroke-width:0.555804;stroke-linecap:round;stroke-linejoin:round;stroke-miterlimit:4;stroke-dasharray:none"
         id="path5786-8"
         cx="54.967186"
         cy="43.623177"
         r="3.3455353" />
      <circle
         style="fill:none;fill-rule:evenodd;stroke:#000000;stroke-width:0.423904;stroke-linecap:round;stroke-linejoin:round;stroke-miterlimit:4;stroke-dasharray:none"
         id="path5786-4-9"
         cx="54.967186"
         cy="43.68932"
         r="2.55159" />
    </g>
    <g
       id="g27337"
       inkscape:label="right eye button holes">
      <ellipse
         style="fill:#ffffff;fill-opacity:1;fill-rule:evenodd;stroke:#000000;stroke-width:0.134966;stroke-linecap:round;stroke-linejoin:round;stroke-miterlimit:4;stroke-dasharray:none;stroke-dashoffset:0;stroke-opacity:1"
         id="path24300-0-57-2"
         cx="42.874905"
         cy="30.269987"
         rx="0.21410842"
         ry="0.21391831" />
      <ellipse
         style="fill:#ffffff;fill-opacity:1;fill-rule:evenodd;stroke:#000000;stroke-width:0.134966;stroke-linecap:round;stroke-linejoin:round;stroke-miterlimit:4;stroke-dasharray:none;stroke-dashoffset:0;stroke-opacity:1"
         id="path24300-0-57-8"
         cx="45.533138"
         cy="31.592903"
         rx="0.21410842"
         ry="0.21391831" />
      <ellipse
         style="fill:#ffffff;fill-opacity:1;fill-rule:evenodd;stroke:#000000;stroke-width:0.134966;stroke-linecap:round;stroke-linejoin:round;stroke-miterlimit:4;stroke-dasharray:none;stroke-dashoffset:0;stroke-opacity:1"
         id="path24300-0-57-4"
         cx="46.909801"
         cy="28.806509"
         rx="0.21410842"
         ry="0.21391831" />
      <ellipse
         style="display:inline;fill:#ffffff;fill-opacity:1;fill-rule:evenodd;stroke:#000000;stroke-width:0.134966;stroke-linecap:round;stroke-linejoin:round;stroke-miterlimit:4;stroke-dasharray:none;stroke-dashoffset:0;stroke-opacity:1"
         id="path24300-0-57"
         cx="44.254776"
         cy="27.698811"
         rx="0.21410842"
         ry="0.21391831" />
    </g>
    <g
       id="g24276"
       inkscape:label="right eye stitches"
       transform="matrix(0.53257084,0.11152874,-0.11152874,0.53257084,22.549716,16.112595)">
      <path
         style="fill:none;stroke:#000000;stroke-width:0.3;stroke-linecap:round;stroke-linejoin:miter;stroke-miterlimit:4;stroke-dasharray:none;stroke-opacity:1"
         d="m 43.391666,12.600781 c 0,0 1.6761,1.69774 2.282031,2.711979 0.705554,1.180992 1.521354,3.836459 1.521354,3.836459"
         id="path20960"
         sodipodi:nodetypes="csc" />
      <path
         style="fill:none;stroke:#000000;stroke-width:0.3;stroke-linecap:round;stroke-linejoin:miter;stroke-miterlimit:4;stroke-dasharray:none;stroke-opacity:1"
         d="m 48.551041,13.692187 c 0,0 -2.410811,0.943424 -3.505729,1.620573 -1.14069,0.705457 -3.141927,2.513542 -3.141927,2.513542"
         id="path20962"
         sodipodi:nodetypes="csc" />
      <path
         style="fill:none;stroke:#000000;stroke-width:0.3;stroke-linecap:round;stroke-linejoin:miter;stroke-miterlimit:4;stroke-dasharray:none;stroke-opacity:1"
         d="m 48.451822,13.72526 c -0.132291,0.09922 -2.234376,0.440082 -3.208073,0.992188 -1.263107,0.716208 -3.241145,2.910416 -3.241145,2.910416"
         id="path21206"
         sodipodi:nodetypes="csc" />
      <path
         style="fill:none;stroke:#000000;stroke-width:0.3;stroke-linecap:round;stroke-linejoin:miter;stroke-miterlimit:4;stroke-dasharray:none;stroke-opacity:1"
         d="m 43.427956,12.768802 c 0,0 0.943965,1.922817 1.473325,2.853102 0.677156,1.190017 2.174904,3.484526 2.174904,3.484526"
         id="path21756"
         sodipodi:nodetypes="csc" />
    </g>
    <path
       style="fill:none;stroke:#000000;stroke-width:0.8;stroke-linecap:butt;stroke-linejoin:round;stroke-miterlimit:4;stroke-dasharray:none;stroke-opacity:1"
       d="m 10.284169,29.503787 c 0,0 2.104804,0.905328 3.189883,1.268706 1.342534,0.449595 4.096104,1.123709 4.096104,1.123709 0,0 -0.34901,3.266078 -0.217494,4.893574 0.138192,1.710112 1.051214,5.038568 1.051214,5.038568 0,0 -1.553225,1.688503 -2.174922,2.646155 -0.823855,1.269049 -2.029926,4.059852 -2.029926,4.059852"
       id="path6079"
       sodipodi:nodetypes="cscscsc"
       inkscape:label="patch outline" />
    <g
       id="g3614"
       inkscape:label="pin outline">
      <circle
         style="display:inline;fill:none;fill-rule:evenodd;stroke:#000000;stroke-width:0.342557;stroke-linecap:round;stroke-linejoin:round;stroke-miterlimit:4;stroke-dasharray:none;stroke-dashoffset:0"
         id="path15850"
         cx="41.769341"
         cy="6.9097757"
         r="1.8502175" />
      <circle
         style="display:inline;fill:none;fill-rule:evenodd;stroke:#000000;stroke-width:0.33415;stroke-linecap:round;stroke-linejoin:round;stroke-miterlimit:4;stroke-dasharray:none;stroke-dashoffset:0"
         id="path15850-9"
         cx="34.328289"
         cy="8.9879827"
         r="1.8048115" />
      <circle
         style="fill:none;fill-rule:evenodd;stroke:#000000;stroke-width:0.334151;stroke-linecap:round;stroke-linejoin:round;stroke-miterlimit:4;stroke-dasharray:none;stroke-dashoffset:0"
         id="path15850-7"
         cx="9.1984816"
         cy="52.77354"
         r="1.8048115" />
    </g>
    <g
       id="g3609"
       inkscape:label="pin red fill">
      <circle
         style="display:inline;fill:#ff0000;fill-opacity:1;fill-rule:evenodd;stroke:none;stroke-width:0.316736;stroke-linecap:round;stroke-linejoin:round;stroke-miterlimit:4;stroke-dasharray:0.316736, 0.316736;stroke-dashoffset:0"
         id="path15850-2"
         cx="41.801582"
         cy="6.897347"
         r="1.7129166"
         inkscape:label="path15850-2" />
      <circle
         style="display:inline;fill:#ff0000;fill-opacity:1;fill-rule:evenodd;stroke:none;stroke-width:0.307563;stroke-linecap:round;stroke-linejoin:round;stroke-miterlimit:4;stroke-dasharray:0.307563, 0.307563;stroke-dashoffset:0"
         id="path15850-2-8"
         cx="34.327465"
         cy="9.0086279"
         r="1.6633072" />
      <circle
         style="display:inline;fill:#ff0000;fill-opacity:1;fill-rule:evenodd;stroke:none;stroke-width:0.307563;stroke-linecap:round;stroke-linejoin:round;stroke-miterlimit:4;stroke-dasharray:0.307563, 0.307563;stroke-dashoffset:0"
         id="path15850-2-82"
         cx="9.197649"
         cy="52.761108"
         r="1.6633072" />
    </g>
    <g
       id="g3936"
       inkscape:label="pin sticks"
       style="display:inline;stroke-width:0.5;stroke-miterlimit:4;stroke-dasharray:none">
      <path
         style="fill:none;stroke:#000000;stroke-width:0.5;stroke-linecap:round;stroke-linejoin:miter;stroke-miterlimit:4;stroke-dasharray:none;stroke-opacity:1"
         d="M 41.299649,8.8711406 39.367815,15.524088"
         id="path16225"
         sodipodi:nodetypes="cc" />
      <path
         style="fill:none;stroke:#000000;stroke-width:0.5;stroke-linecap:round;stroke-linejoin:miter;stroke-miterlimit:4;stroke-dasharray:none;stroke-opacity:1"
         d="m 34.818359,10.86628 1.334745,5.444949"
         id="path16227"
         sodipodi:nodetypes="cc" />
      <path
         style="fill:none;stroke:#000000;stroke-width:0.5;stroke-linecap:round;stroke-linejoin:miter;stroke-miterlimit:4;stroke-dasharray:none;stroke-opacity:1"
         d="M 9.9484123,50.976166 10.994355,47.990344"
         id="path16229"
         sodipodi:nodetypes="cc" />
      <path
         style="fill:none;stroke:#000000;stroke-width:0.5;stroke-linecap:round;stroke-linejoin:miter;stroke-miterlimit:4;stroke-dasharray:none;stroke-opacity:1"
         d="M 11.455727,46.554972 12.404098,43.83801"
         id="path16229-8"
         sodipodi:nodetypes="cc" />
    </g>
    <g
       id="g15712"
       inkscape:label="stitches"
       transform="matrix(1.0960234,0,0,1.0960234,-14.944922,-18.344486)"
       style="display:inline;stroke-width:0.456195;stroke-miterlimit:4;stroke-dasharray:none">
      <path
         style="fill:none;stroke:#000000;stroke-width:0.456195;stroke-linecap:round;stroke-linejoin:round;stroke-miterlimit:4;stroke-dasharray:none;stroke-opacity:1"
         d="m 25.489616,43.295111 c 0,0 -0.258357,0.665108 -0.30459,1.221034 -0.05304,0.637802 0.008,1.342125 0.008,1.342125"
         id="path13569"
         sodipodi:nodetypes="csc" />
      <path
         style="fill:none;stroke:#000000;stroke-width:0.456195;stroke-linecap:round;stroke-linejoin:round;stroke-miterlimit:4;stroke-dasharray:none;stroke-opacity:1"
         d="m 27.222742,43.654112 c 0,0 -0.284017,0.786517 -0.340866,1.384265 -0.05236,0.550492 0.505693,1.706988 0.505693,1.706988"
         id="path13571"
         sodipodi:nodetypes="csc" />
      <path
         style="fill:none;stroke:#000000;stroke-width:0.456195;stroke-linecap:round;stroke-linejoin:round;stroke-miterlimit:4;stroke-dasharray:none;stroke-opacity:1"
         d="m 30.710872,49.049799 c 0,0 -0.640341,0.57507 -1.143685,1.00606 -0.411284,0.352164 -1.322917,0.942578 -1.322917,0.942578"
         id="path13573"
         sodipodi:nodetypes="csc" />
      <path
         style="fill:none;stroke:#000000;stroke-width:0.456195;stroke-linecap:round;stroke-linejoin:round;stroke-miterlimit:4;stroke-dasharray:none;stroke-opacity:1"
         d="m 28.268807,49.354923 c 0,0 0.633643,0.344875 1.149552,0.684399 0.450982,0.296795 1.092475,0.572376 1.092475,0.572376"
         id="path13575"
         sodipodi:nodetypes="csc" />
      <path
         style="fill:none;stroke:#000000;stroke-width:0.456195;stroke-linecap:round;stroke-linejoin:round;stroke-miterlimit:4;stroke-dasharray:none;stroke-opacity:1"
         d="m 31.107215,52.668084 c 0,0 -0.553006,0.345443 -1.060471,0.529702 -0.43228,0.156959 -1.019395,0.234712 -1.019395,0.234712"
         id="path13577"
         sodipodi:nodetypes="csc" />
      <path
         style="fill:none;stroke:#000000;stroke-width:0.456195;stroke-linecap:round;stroke-linejoin:round;stroke-miterlimit:4;stroke-dasharray:none;stroke-opacity:1"
         d="m 30.770082,56.262366 c 0,0 -0.614513,-0.243185 -0.987921,-0.501429 -0.350613,-0.242479 -0.911639,-0.762811 -0.911639,-0.762811"
         id="path13579"
         sodipodi:nodetypes="csc" />
      <path
         style="fill:none;stroke:#000000;stroke-width:0.456195;stroke-linecap:round;stroke-linejoin:round;stroke-miterlimit:4;stroke-dasharray:none;stroke-opacity:1"
         d="m 29.539985,57.560744 c 0,0 -0.540338,-0.107097 -0.89884,-0.361135 -0.405995,-0.287691 -0.931909,-1.040197 -0.931909,-1.040197"
         id="path13581"
         sodipodi:nodetypes="csc" />
      <path
         style="fill:none;stroke:#000000;stroke-width:0.456195;stroke-linecap:round;stroke-linejoin:round;stroke-miterlimit:4;stroke-dasharray:none;stroke-opacity:1"
         d="m 27.192341,57.138793 c 0,0 0.639235,0.490789 0.903636,0.88977 0.190765,0.287863 0.474757,0.738807 0.474757,0.738807"
         id="path13583"
         sodipodi:nodetypes="csc" />
      <path
         style="fill:none;stroke:#000000;stroke-width:0.456195;stroke-linecap:round;stroke-linejoin:round;stroke-miterlimit:4;stroke-dasharray:none;stroke-opacity:1"
         d="m 26.209217,46.515987 c 0,0 0.237199,-1.145094 0.563307,-1.400796 0.756166,-0.592912 1.669152,-1.032476 1.443474,-0.944712"
         id="path13587"
         sodipodi:nodetypes="csc" />
      <path
         style="fill:none;stroke:#000000;stroke-width:0.456195;stroke-linecap:round;stroke-linejoin:round;stroke-miterlimit:4;stroke-dasharray:none;stroke-opacity:1"
         d="m 53.656978,33.226849 c 0.281119,-0.01654 0.824626,0.209776 1.624402,0.117015 0.713277,-0.08273 1.247132,-0.195205 1.247132,-0.195205"
         id="path14064"
         sodipodi:nodetypes="csc" />
      <path
         style="fill:none;stroke:#000000;stroke-width:0.456195;stroke-linecap:round;stroke-linejoin:round;stroke-miterlimit:4;stroke-dasharray:none;stroke-opacity:1"
         d="m 53.283966,35.567025 c 0,0 1.144038,0.01584 1.706153,-0.139536 0.817579,-0.225998 1.980468,-1.013699 1.980468,-1.013699"
         id="path14066"
         sodipodi:nodetypes="csc" />
      <path
         style="fill:none;stroke:#000000;stroke-width:0.456195;stroke-linecap:round;stroke-linejoin:round;stroke-miterlimit:4;stroke-dasharray:none;stroke-opacity:1"
         d="m 53.580789,34.713224 c 0,0 0.796314,0.292137 1.434001,0.454979 0.784609,0.20036 1.604349,0.261371 1.604349,0.261371"
         id="path14068"
         sodipodi:nodetypes="csc" />
      <path
         style="fill:none;stroke:#000000;stroke-width:0.456195;stroke-linecap:round;stroke-linejoin:round;stroke-miterlimit:4;stroke-dasharray:none;stroke-opacity:1"
         d="m 56.615446,36.357815 c 0,0 -0.796689,-0.152321 -1.310377,-0.05507 -0.536604,0.101587 -1.124382,0.443535 -1.124382,0.443535"
         id="path15050"
         sodipodi:nodetypes="csc" />
    </g>
    <g
       id="g12303"
       inkscape:label="hashtag"
       transform="matrix(1.0960234,0,0,1.0960234,-14.944922,-18.344486)"
       style="display:inline;stroke-width:0.456195;stroke-miterlimit:4;stroke-dasharray:none">
      <path
         style="fill:none;stroke:#000000;stroke-width:0.456195;stroke-linecap:round;stroke-linejoin:miter;stroke-miterlimit:4;stroke-dasharray:none;stroke-opacity:1"
         d="m 67.41914,43.656249 -0.198438,2.083594 -0.297656,1.785938 -0.529167,1.653645 -0.677994,1.719792"
         id="path11085" />
      <path
         style="fill:none;stroke:#000000;stroke-width:0.456195;stroke-linecap:round;stroke-linejoin:miter;stroke-miterlimit:4;stroke-dasharray:none;stroke-opacity:1"
         d="m 68.808202,43.656249 -0.628385,2.000912 -0.545703,2.050521 -0.479558,2.199349"
         id="path11087" />
      <path
         style="fill:none;stroke:#000000;stroke-width:0.456195;stroke-linecap:round;stroke-linejoin:miter;stroke-miterlimit:4;stroke-dasharray:none;stroke-opacity:1"
         d="m 65.335546,45.855598 c 0,0 0.904757,-0.120749 1.35599,-0.08268 0.338411,0.02855 0.66761,0.131576 0.992187,0.231511 0.395248,0.121694 0.802495,0.234434 1.157552,0.446484 0.349045,0.208459 0.926042,0.79375 0.926042,0.79375"
         id="path11089"
         sodipodi:nodetypes="csssc"
         inkscape:label="path11089" />
      <path
         style="fill:none;stroke:#000000;stroke-width:0.456195;stroke-linecap:round;stroke-linejoin:miter;stroke-miterlimit:4;stroke-dasharray:none;stroke-opacity:1"
         d="m 65.219791,47.426562 c 0,0 0.901911,-0.172802 1.355989,-0.148828 0.309869,0.01636 0.612534,0.108471 0.909506,0.198437 0.419286,0.12702 1.223698,0.479558 1.223698,0.479558"
         id="path11091"
         sodipodi:nodetypes="cssc" />
    </g>
    <g
       id="g12310"
       inkscape:label="nose lines"
       transform="matrix(1.0960234,0,0,1.0960234,-14.944922,-18.344486)"
       style="display:inline;stroke-width:0.638672;stroke-miterlimit:4;stroke-dasharray:none">
      <path
         style="fill:none;stroke:#000000;stroke-width:0.638672;stroke-linecap:round;stroke-linejoin:miter;stroke-miterlimit:4;stroke-dasharray:none;stroke-opacity:1"
         d="m 52.122916,73.058072 c 0,0 -0.639624,0.628131 -0.826823,1.02526 -0.18714,0.397004 -0.264583,1.289844 -0.264583,1.289844"
         id="path7183"
         inkscape:label="path7183"
         sodipodi:nodetypes="csc" />
      <path
         style="fill:none;stroke:#000000;stroke-width:0.638672;stroke-linecap:round;stroke-linejoin:miter;stroke-miterlimit:4;stroke-dasharray:none;stroke-opacity:1"
         d="m 51.924479,69.684635 c 0,0 -1.365012,-0.222711 -2.71198,-0.03307 -1.157788,0.163006 -2.414323,0.892968 -2.414323,0.892968"
         id="path7185"
         sodipodi:nodetypes="csc" />
      <path
         style="fill:none;stroke:#000000;stroke-width:0.638672;stroke-linecap:round;stroke-linejoin:miter;stroke-miterlimit:4;stroke-dasharray:none;stroke-opacity:1"
         d="m 41.671874,52.585937 c 0,0 1.225744,0.06099 1.819011,-0.06615 0.744647,-0.159585 1.412673,-0.569449 2.116667,-0.859896 0.817636,-0.337332 1.591024,-0.804013 2.447395,-1.02526 0.6872,-0.177541 1.413436,-0.327588 2.116667,-0.231511 0.647034,0.0884 1.284616,0.352251 1.81901,0.727605 0.434524,0.305207 1.058334,1.190625 1.058334,1.190625"
         id="path8009"
         sodipodi:nodetypes="csssssc" />
      <path
         style="fill:none;stroke:#000000;stroke-width:0.638672;stroke-linecap:round;stroke-linejoin:miter;stroke-miterlimit:4;stroke-dasharray:none;stroke-opacity:1"
         d="m 52.375806,63.315261 c 0,0 -1.41499,-0.370814 -2.138046,-0.47672 -0.701168,-0.1027 -1.408179,-0.183319 -2.116667,-0.198438 -0.651126,-0.0139 -1.951302,0.09922 -1.951302,0.09922"
         id="path8286"
         sodipodi:nodetypes="cssc" />
      <path
         style="fill:none;stroke:#000000;stroke-width:0.638672;stroke-linecap:round;stroke-linejoin:miter;stroke-miterlimit:4;stroke-dasharray:none;stroke-opacity:1"
         d="m 46.264653,57.546043 c 0,0 1.526469,-0.166471 2.154097,-0.131461 0.561178,0.0313 1.868964,0.325055 1.868964,0.325055"
         id="path9248"
         sodipodi:nodetypes="csc" />
    </g>
    <g
       id="g27331"
       inkscape:label="ear highlights"
       style="stroke-width:0.7;stroke-miterlimit:4;stroke-dasharray:none">
      <path
         style="display:inline;fill:none;stroke:#000000;stroke-width:0.7;stroke-linecap:round;stroke-linejoin:miter;stroke-miterlimit:4;stroke-dasharray:none;stroke-opacity:1"
         d="m 22.046869,16.653627 c 0,0 -1.452117,-0.365463 -2.193045,-0.362489 -0.741939,0.003 -1.490741,0.141353 -2.193047,0.380613 -0.723931,0.246624 -1.431967,0.592532 -2.029926,1.069335 -0.703452,0.560922 -1.305082,1.270693 -1.758062,2.048052 -0.358884,0.615879 -0.598501,1.310299 -0.724973,2.011802 -0.09862,0.547028 -0.01813,1.66744 -0.01813,1.66744"
         id="path12560"
         sodipodi:nodetypes="csssssc" />
      <path
         style="display:inline;fill:none;stroke:#000000;stroke-width:0.7;stroke-linecap:round;stroke-linejoin:miter;stroke-miterlimit:4;stroke-dasharray:none;stroke-opacity:1"
         d="m 53.275117,16.54488 c 0,0 1.551558,-0.277359 2.356166,-0.235616 0.889687,0.04615 1.82149,0.237853 2.628031,0.616228 0.853306,0.400317 1.646193,0.973167 2.283668,1.66744 0.559202,0.60903 1.01188,1.340784 1.286827,2.120547 0.304019,0.86221 0.362488,2.718653 0.362488,2.718653"
         id="path12558"
         sodipodi:nodetypes="cssssc" />
    </g>
    <g
       aria-label="Vud-elephant"
       id="text30537"
       style="font-size:4.14595px;line-height:1.25;font-family:'Segoe Print';-inkscape-font-specification:'Segoe Print';stroke-width:0.103649"
       inkscape:path-effect="#path-effect41338"
       transform="translate(-37.107812,6.1846353)">
      <path
         d="m 43.789142,8.6969462 c -0.04265,-0.065001 -0.06854,-0.1305177 -0.07755,-0.1965889 -0.009,-0.066069 0.0049,-0.1155402 0.04183,-0.1483151 0.07658,-0.068004 0.217571,-0.014134 0.422225,0.1620135 0.207214,0.1803943 0.807728,0.5135406 1.842469,1.0671075 -0.02257,-0.096349 -0.04357,-0.1967208 -0.0629,-0.3010553 -0.09065,-0.476527 -0.16414,-0.8337759 -0.227447,-1.074811 -0.236374,-0.9470626 -0.282753,-1.4735494 -0.172857,-1.5617193 0.07533,-0.060441 0.14944,-0.0449 0.222019,0.045998 0.01267,0.015861 0.0201,0.033288 0.02234,0.052272 0.0026,0.01903 0.01,0.09201 0.02443,0.229975 0.04783,0.4525519 0.120949,0.9090152 0.217326,1.3688709 0.07599,0.3662931 0.133846,0.6478897 0.175949,0.8745295 0.04504,0.2466304 0.09169,0.4147228 0.137424,0.5032308 0.02418,0.050458 0.0264,0.1062545 0.0068,0.1674242 -0.01965,0.061171 -0.05831,0.116411 -0.116056,0.165907 -0.02436,0.02088 -0.192068,-0.064309 -0.504731,-0.2532568 C 45.618653,9.7262011 45.143111,9.4512119 44.401043,9.0390811 43.998882,8.81598 43.7945,8.7030148 43.789142,8.6969462 Z"
         id="path41293"
         inkscape:original-d="m 45.71006,0.96034421 q 0.01822,-0.1153902 0.07895,-0.19839017 0.06073,-0.083 0.141707,-0.083 0.168025,0 0.230781,0.40082916 0.05871,0.3907072 0.771292,2.0102188 0.07693,-0.1315853 0.166,-0.2692438 0.402854,-0.6295851 0.576951,-0.9656338 0.702463,-1.31382885 0.927171,-1.31382885 0.153853,0 0.153853,0.17409751 0,0.0303658 -0.01619,0.0546585 -0.01417,0.0222683 -0.13361,0.1943414 -0.39678,0.57290224 -0.76117,1.19438984 -0.287463,0.4878779 -0.475732,0.7814144 -0.210536,0.3259267 -0.248999,0.4716828 -0.02429,0.080976 -0.117415,0.1315853 -0.09312,0.05061 -0.222683,0.05061 -0.05466,0 -0.244951,-0.5202681 Q 46.450987,2.8470753 45.967157,1.6223196 45.71006,0.97249055 45.71006,0.96034421 Z" />
      <path
         d="m 47.979917,7.5016478 c 0.04976,0.3249917 0.06171,0.5980356 0.03333,0.8209571 -0.02839,0.2229178 -0.09408,0.3753544 -0.200256,0.4589954 -0.0609,0.047975 -0.155277,0.056321 -0.283916,0.025654 C 47.401481,8.7758802 47.26945,8.6760877 47.134085,8.5072027 47.023601,8.3693598 46.888796,8.1410988 46.734185,7.8238882 46.604976,7.5577695 46.505778,7.3795934 46.433193,7.2880359 c -0.02224,-0.085915 -0.003,-0.1528647 0.05774,-0.2004841 0.04113,-0.03225 0.08654,-0.041928 0.136026,-0.029033 0.04866,0.011831 0.08623,0.034888 0.112817,0.069041 0.05825,0.074837 0.116689,0.1994214 0.176939,0.3739662 0.119258,0.3372056 0.256954,0.6012334 0.40758,0.7919929 0.137526,0.1741681 0.241729,0.2330352 0.312472,0.1775147 0.09067,-0.071157 0.136767,-0.2485733 0.143849,-0.5347987 0.0071,-0.2858577 -0.05581,-0.6277503 -0.187242,-1.0259595 -0.05338,-0.1587201 -0.08064,-0.267082 -0.08259,-0.3241781 -0.0017,-0.058999 0.02009,-0.1050725 0.06545,-0.1379917 0.06863,-0.049813 0.138557,-0.025097 0.209646,0.073395 0.0087,0.012105 0.02793,0.058821 0.05805,0.1404177 0.113356,0.2827028 0.249297,0.5300877 0.404344,0.742729 0.186077,0.2551977 0.343867,0.3937321 0.47116,0.4162621 0.0672,0.012996 0.109789,0.032314 0.127885,0.057512 0.02206,0.030711 0.02272,0.072625 0.0023,0.1257802 -0.01949,0.052484 -0.0446,0.090011 -0.07555,0.1126641 -0.06562,0.048019 -0.159983,0.030462 -0.284006,-0.052499 -0.123822,-0.082826 -0.268335,-0.2342903 -0.431807,-0.4542833 l -0.03989,-0.053683 c -0.01289,-0.017352 -0.02571,-0.0356 -0.03846,-0.054746 3e-6,-2.1e-6 6e-6,-4.2e-6 9e-6,-6.3e-6 z"
         id="path41295"
         inkscape:original-d="m 50.119181,2.6992949 q -0.259122,0.4352437 -0.530391,0.6741217 -0.271268,0.238878 -0.504073,0.238878 -0.133609,0 -0.273292,-0.155878 -0.137659,-0.155878 -0.137659,-0.4797804 0,-0.265195 0.127537,-0.7814143 0.107293,-0.431195 0.107293,-0.6052925 0.05871,-0.1214634 0.184219,-0.1214634 0.08502,0 0.135634,0.060732 0.05061,0.058707 0.05061,0.1234877 0,0.1417073 -0.09919,0.4028536 -0.188268,0.5081218 -0.188268,0.8725119 0,0.3319999 0.153853,0.3319999 0.196366,0 0.500024,-0.3340243 0.303659,-0.3340243 0.520269,-0.9312192 0.08502,-0.238878 0.137658,-0.3097316 0.05466,-0.072878 0.145756,-0.072878 0.137659,0 0.137659,0.182195 0,0.022268 -0.03846,0.1477805 -0.121463,0.4433413 -0.121463,0.8380972 0,0.4737072 0.155878,0.6133901 0.08098,0.074902 0.08098,0.1214634 0,0.056683 -0.083,0.1032438 -0.08098,0.046561 -0.14778,0.046561 -0.141707,0 -0.228756,-0.2105365 -0.08705,-0.2105366 -0.08705,-0.6214876 v -0.066805 q 0,-0.03239 0.002,-0.066805 z" />
      <path
         d="m 49.873916,6.2623294 c 0.01562,0.3303028 -0.0052,0.6079514 -0.06572,0.8350044 -0.06127,0.2260238 -0.149484,0.3788194 -0.269901,0.4605118 -0.09258,0.062808 -0.193891,0.07216 -0.30515,0.027832 C 49.12219,7.5396262 49.01832,7.4483488 48.92271,7.3111354 48.727985,7.0316786 48.626006,6.6736008 48.633938,6.2358441 c 0.009,-0.4387252 0.146205,-0.7427496 0.399892,-0.9019274 0.110855,-0.069557 0.246229,-0.082519 0.403609,-0.037875 C 49.28365,4.8744603 49.134513,4.450739 48.990252,4.024805 c -0.02881,-0.087725 -0.02802,-0.1584861 0.0026,-0.21223 0.03171,-0.054382 0.06116,-0.089327 0.08788,-0.1047582 0.0816,-0.047131 0.163704,0.00235 0.246328,0.1472547 0.01494,0.026209 0.04232,0.1363 0.08555,0.332502 0.06487,0.3044228 0.171176,0.6635422 0.320455,1.077352 0.149169,0.4106502 0.295422,0.7294617 0.428903,0.9523455 0.138315,0.2309546 0.250828,0.3202155 0.338024,0.2688161 0.05613,-0.033088 0.101746,-0.088513 0.13757,-0.1665998 0.01319,-0.035549 0.03103,-0.059721 0.05336,-0.072455 0.03252,-0.018541 0.06269,-0.00311 0.09054,0.046061 0.03389,0.05983 0.02728,0.1544191 -0.01733,0.2843061 -0.0436,0.1292784 -0.11068,0.220997 -0.203005,0.2762879 -0.160885,0.096349 -0.354456,-0.034503 -0.579289,-0.399272 -0.03815,-0.061889 -0.07414,-0.1259071 -0.107884,-0.1920869 -10e-7,6e-7 -2e-6,1.2e-6 -3e-6,1.8e-6 z M 49.170788,5.5866252 c -0.170497,0.1072385 -0.258791,0.3407723 -0.256287,0.6950051 0.0018,0.3528057 0.0787,0.6325328 0.219545,0.8393947 0.09491,0.1393944 0.182533,0.1813432 0.262806,0.1272213 0.0757,-0.05104 0.136458,-0.1580755 0.185252,-0.3220157 0.04979,-0.1646436 0.06879,-0.3856079 0.06058,-0.6651589 -0.0089,-0.2811384 -0.04135,-0.4728699 -0.105138,-0.5766192 -0.03102,-0.050463 -0.08425,-0.088919 -0.160066,-0.1148563 -0.07547,-0.02773 -0.144579,-0.022036 -0.206687,0.017029 z"
         id="path41297"
         inkscape:original-d="m 52.669912,2.741807 q -0.271268,0.4352438 -0.574927,0.6720974 -0.303658,0.2348292 -0.558731,0.2348292 -0.196366,0 -0.311756,-0.1498049 -0.113366,-0.1518292 -0.113366,-0.4028535 0,-0.5121706 0.415,-1.0506582 0.417024,-0.5384876 0.898829,-0.5384876 0.210536,0 0.390707,0.1801707 l 0.283414,-1.32395081 q 0.03037,-0.1356341 0.111342,-0.18219506 0.083,-0.046561 0.129561,-0.046561 0.141707,0 0.141707,0.25102431 0,0.0445366 -0.09312,0.33199989 -0.14778,0.44536577 -0.28139,1.09519477 -0.131585,0.6478047 -0.131585,1.0405363 0,0.4048779 0.176121,0.4048779 0.113366,0 0.23483,-0.074902 0.05061,-0.036439 0.09515,-0.036439 0.06478,0 0.06478,0.085024 0,0.1032439 -0.182195,0.238878 -0.18017,0.1356341 -0.370463,0.1356341 -0.334024,0 -0.334024,-0.6437559 0,-0.109317 0.01012,-0.2206585 z M 52.404717,1.7943927 q -0.327951,0 -0.649829,0.4453657 -0.321878,0.4433413 -0.321878,0.8198778 0,0.2530487 0.168024,0.2530487 0.157902,0 0.38261,-0.166 0.226731,-0.1659999 0.465609,-0.5283656 0.238878,-0.3643902 0.238878,-0.5465852 0,-0.089073 -0.083,-0.1821951 -0.08098,-0.095146 -0.200414,-0.095146 z" />
      <path
         d="m 51.97162,5.089155 c -3.57e-4,0.00621 -7.21e-4,0.012396 -0.0011,0.018562 -0.01955,0.3190427 -0.06095,0.5804594 -0.128493,0.7867101 -0.06885,0.2102423 -0.158351,0.3442631 -0.27445,0.4042807 -0.06663,0.034446 -0.158455,0.024116 -0.277203,-0.029963 C 51.1729,6.2142422 51.061596,6.0928904 50.958861,5.9038096 50.875234,5.749897 50.782466,5.5019933 50.688701,5.1640435 50.610276,4.8796946 50.54681,4.6877978 50.49218,4.5846147 c -0.0054,-0.088545 0.02696,-0.1514096 0.097,-0.1878574 0.04743,-0.02468 0.09463,-0.026243 0.141245,-0.00474 0.04601,0.020311 0.07867,0.049799 0.09816,0.088231 0.04279,0.084353 0.07547,0.2173661 0.100985,0.399894 0.05202,0.3525493 0.139186,0.6363807 0.251372,0.8502679 0.102557,0.1955288 0.19279,0.2727183 0.271114,0.232468 0.09997,-0.051372 0.176191,-0.2143319 0.238496,-0.4915156 0.05432,-0.2416672 0.06782,-0.5366471 0.04186,-0.8854333 -0.0037,-0.050752 -0.0082,-0.1026562 -0.01344,-0.1557052 -0.01755,-0.1665919 -0.01961,-0.2789138 -0.0083,-0.3353323 0.01201,-0.058349 0.04476,-0.099179 0.09795,-0.1220134 0.08058,-0.034593 0.144282,0.00482 0.191301,0.1166266 0.0058,0.013817 0.01361,0.06359 0.02423,0.1500469 0.04563,0.3011627 0.124083,0.5721905 0.228369,0.813375 0.125093,0.2893051 0.247977,0.4597216 0.363868,0.5111797 0.06116,0.028322 0.09747,0.057181 0.109336,0.085781 0.01448,0.034901 0.0063,0.075453 -0.02376,0.1218528 -0.02909,0.045974 -0.06022,0.076222 -0.0939,0.090836 C 52.536682,5.893567 52.451278,5.8548901 52.34949,5.7468451 52.248094,5.6392164 52.138812,5.4603085 52.025407,5.2114716 l -0.0277,-0.060789 c -0.009,-0.019648 -0.01766,-0.040156 -0.02609,-0.061523 3e-6,-1.4e-6 7e-6,-2.9e-6 10e-6,-4.4e-6 z M 51.505343,2.9718562 c -0.004,0.00461 -0.0088,0.010998 -0.01425,0.019158 -0.0068,0.0087 -0.01575,0.019078 -0.02699,0.031169 -0.05312,0.057892 -0.144414,0.1941016 -0.261027,0.4037522 0,0 0,0 0,0 -0.02947,0.054902 -0.06076,0.1150381 -0.09358,0.1802101 -0.06548,0.1315003 -0.113742,0.2256145 -0.149666,0.2871743 -0.0093,0.015028 -0.01858,0.03006 -0.02782,0.045094 -0.03022,0.014804 -0.06428,0.012819 -0.102378,-0.0059 -0.0381,-0.018718 -0.06497,-0.043701 -0.08049,-0.075113 -0.03013,-0.060995 0.0081,-0.207652 0.124098,-0.4366604 0.06003,-0.1176431 0.120321,-0.2252723 0.180204,-0.3226987 0.05958,-0.093141 0.118818,-0.1768197 0.177042,-0.2509069 0.0448,-0.0577 0.07714,-0.1043327 0.09677,-0.1405334 0.01451,-0.026658 0.02327,-0.038363 0.02614,-0.035192 0.02197,-0.00924 0.05693,0.00317 0.10451,0.037442 0.04885,0.033718 0.07831,0.063243 0.08863,0.088123 0.0062,0.01497 0.0038,0.043608 -0.0069,0.086024 -0.01069,0.042406 -0.02205,0.071998 -0.03432,0.088856 0,0 -3e-6,2.3e-6 -3e-6,2.3e-6 z"
         id="path41299"
         inkscape:original-d="m 55.388667,2.6992949 q -0.259122,0.4352437 -0.530391,0.6741217 -0.271268,0.238878 -0.504073,0.238878 -0.133609,0 -0.273292,-0.155878 -0.137659,-0.155878 -0.137659,-0.4797804 0,-0.265195 0.127537,-0.7814143 0.107293,-0.431195 0.107293,-0.6052925 0.05871,-0.1214634 0.184219,-0.1214634 0.08502,0 0.135634,0.060732 0.05061,0.058707 0.05061,0.1234877 0,0.1417073 -0.09919,0.4028536 -0.188268,0.5081218 -0.188268,0.8725119 0,0.3319999 0.153853,0.3319999 0.196366,0 0.500024,-0.3340243 0.303659,-0.3340243 0.520268,-0.9312192 0.08503,-0.238878 0.137659,-0.3097316 0.05466,-0.072878 0.145756,-0.072878 0.137659,0 0.137659,0.182195 0,0.022268 -0.03846,0.1477805 -0.121463,0.4433413 -0.121463,0.8380972 0,0.4737072 0.155878,0.6133901 0.08098,0.074902 0.08098,0.1214634 0,0.056683 -0.083,0.1032438 -0.08097,0.046561 -0.14778,0.046561 -0.141707,0 -0.228756,-0.2105365 -0.08705,-0.2105366 -0.08705,-0.6214876 v -0.066805 q 0,-0.03239 0.002,-0.066805 z m 0.445365,-2.12763348 q -0.0081,0.004049 -0.02024,0.0121463 -0.01417,0.008098 -0.03644,0.0182195 -0.135634,0.0627561 -0.56278,0.3886828 Q 55.038447,1.1263442 54.94735,1.1850515 l -0.04656,0.028341 q -0.05263,0 -0.09312,-0.05061 -0.04049,-0.05061 -0.04049,-0.1032439 0,-0.10324387 0.309732,-0.33807306 0.311756,-0.23482919 0.558731,-0.37248768 0.09312,-0.0526341 0.139683,-0.0910975 0.03441,-0.0283415 0.03644,-0.0222683 0.03442,0 0.07895,0.0749024 0.04656,0.0749024 0.04656,0.11539021 0,0.0242927 -0.03846,0.0769268 -0.03846,0.0526341 -0.06478,0.0688292 z" />
      <path
         d="m 53.609768,4.0045588 c 0.0429,-0.013068 0.08585,-0.025945 0.128863,-0.038631 0.22049,-0.065035 0.379996,-0.1160167 0.48531,-0.1616102 0.05038,-0.021399 0.101937,-0.038628 0.154533,-0.051655 0.02261,-0.0056 0.07259,-0.00199 0.148969,0.011679 0.07758,0.013383 0.125274,0.029581 0.143129,0.047548 0.01762,0.016714 0.03027,0.042164 0.03805,0.07634 0.01107,0.048617 0.01,0.084824 -0.0031,0.1085617 -0.01312,0.023754 -0.04896,0.042341 -0.107529,0.056261 -0.0258,0.00613 -0.06406,0.00629 -0.115103,7.734e-4 -0.05102,-0.00551 -0.09246,-0.00412 -0.124062,0.00391 -0.01241,0.00315 -0.05528,0.017493 -0.125491,0.042917 -0.03777,0.014163 -0.108035,0.029237 -0.21244,0.047152 -0.07995,0.013935 -0.139528,0.026986 -0.17764,0.038121 -0.05293,0.015465 -0.133293,0.043438 -0.237759,0.084324 -0.105531,0.041302 -0.183859,0.071065 -0.239546,0.089426 -0.05504,0.018147 -0.101743,0.026806 -0.140436,0.025734 -0.03797,-0.00274 -0.06511,-0.027564 -0.08135,-0.074712 -0.007,-0.020381 -0.0077,-0.046548 -0.0018,-0.078469 0.0066,-0.033597 0.0525,-0.073672 0.13843,-0.119054 0.08535,-0.046571 0.148827,-0.075881 0.188536,-0.088381 0.04683,-0.00697 0.09365,-0.013713 0.140476,-0.020229 z"
         id="path41301"
         inkscape:original-d="m 57.524397,2.2620267 h 0.147781 q 0.376536,0 0.560756,-0.026317 0.08907,-0.012146 0.178146,-0.012146 0.03846,0 0.155878,0.046561 0.119439,0.046561 0.141707,0.078951 0.02227,0.030366 0.02227,0.083 0,0.074902 -0.03037,0.1052683 -0.03037,0.030366 -0.131586,0.030366 -0.04454,0 -0.125512,-0.026317 -0.08097,-0.026317 -0.135634,-0.026317 -0.02227,0 -0.14778,0.010122 -0.0668,0.00607 -0.242927,-0.010122 -0.135634,-0.012146 -0.202439,-0.012146 -0.09312,0 -0.28139,0.012146 -0.188268,0.012146 -0.285439,0.012146 -0.09717,0 -0.157902,-0.020244 -0.05871,-0.022268 -0.05871,-0.097171 0,-0.03239 0.02632,-0.074902 0.02834,-0.044536 0.186244,-0.068829 0.157902,-0.026317 0.226732,-0.026317 z" />
      <path
         d="M 56.661985,4.0369848 C 56.675709,4.1747403 56.585362,4.348286 56.403302,4.5661741 56.222627,4.783625 56.032352,4.9084777 55.820689,4.9433098 55.643377,4.972489 55.495652,4.9352407 55.373261,4.828532 55.252392,4.7219691 55.166508,4.5569516 55.120275,4.3327299 55.042498,3.955526 55.079302,3.572021 55.256336,3.1856656 55.433214,2.7996492 55.680442,2.583304 55.976144,2.5441457 c 0.09676,-0.012813 0.179707,0.010383 0.247755,0.068898 0.06935,0.058376 0.10867,0.1341403 0.119012,0.2266436 0.02312,0.2067761 -0.05044,0.4142039 -0.209874,0.6266004 -0.159882,0.2129982 -0.374108,0.4313028 -0.637369,0.6646952 -0.05427,0.046649 -0.07572,0.098687 -0.06522,0.1556732 0.02028,0.1100106 0.06416,0.1931397 0.130364,0.2497437 0.06631,0.056699 0.151901,0.075908 0.258044,0.058828 0.243065,-0.039112 0.466232,-0.2313804 0.694818,-0.5794003 0.03396,-0.048486 0.06125,-0.073714 0.08134,-0.075788 0.03788,-0.00391 0.06014,0.028498 0.06696,0.096946 0,1e-7 10e-7,1e-7 10e-7,2e-7 z M 55.388106,3.8975953 C 55.830944,3.4700858 56.065069,3.175501 56.037603,2.9666246 56.027059,2.886442 55.987703,2.8506553 55.919262,2.8601238 55.802873,2.8762257 55.683645,2.9859121 55.5691,3.1890421 55.45564,3.3922461 55.396588,3.6286483 55.388106,3.8975953 Z"
         id="path41303"
         inkscape:original-d="m 60.878811,2.8936363 q 0,0.2064877 -0.366414,0.4979998 -0.36439,0.2915121 -0.753073,0.2915121 -0.325927,0 -0.504073,-0.192317 -0.176122,-0.192317 -0.176122,-0.5364633 0,-0.5789754 0.390707,-1.1012679 0.390707,-0.5222925 0.854292,-0.5222925 0.15183,0 0.246976,0.099195 0.09717,0.099195 0.09717,0.238878 0,0.311756 -0.305683,0.5971949 -0.305683,0.2854389 -0.817854,0.5607559 -0.105268,0.054658 -0.105268,0.1417073 0,0.1680243 0.09717,0.2692438 0.09717,0.1012195 0.287463,0.1012195 0.435244,0 0.888707,-0.4818048 0.0668,-0.066805 0.10122,-0.066805 0.06478,0 0.06478,0.1032439 z M 59.47186,2.5778315 q 0.858342,-0.5101462 0.858342,-0.8198778 0,-0.1214634 -0.109317,-0.1214634 -0.186244,0 -0.421073,0.2732926 -0.232805,0.2732926 -0.327952,0.6680486 z" />
      <path
         d="m 57.553496,1.2314541 c 0.10027,-0.00356 0.151698,0.057463 0.155014,0.1814789 0.003,0.1136308 -0.05067,0.3722172 -0.15047,0.7947397 -0.06275,0.2645458 -0.104569,0.5550809 -0.127364,0.872483 -0.02271,0.316229 -0.02801,0.5664016 -0.01911,0.7446871 0.0111,0.2223796 0.03464,0.4428099 0.06902,0.6613841 0.0065,0.041548 0.01024,0.071821 0.01113,0.09067 0.0032,0.067396 -0.01336,0.1262523 -0.04895,0.1766736 -0.03561,0.050446 -0.07429,0.076869 -0.116612,0.079359 -0.05895,0.00347 -0.103003,-0.038206 -0.13262,-0.1254864 -0.02841,-0.087094 -0.04999,-0.2301287 -0.06384,-0.4277523 -0.03139,-0.4477894 -0.02526,-1.0159887 0.0367,-1.6859779 0.0634,-0.6718389 0.134082,-1.0691317 0.192852,-1.1840917 0.06081,-0.1163237 0.126177,-0.1757498 0.194247,-0.1781662 0,-2e-7 10e-7,-3e-7 2e-6,-5e-7 z"
         id="path41305"
         inkscape:original-d="m 62.010445,0.15261277 q 0.145756,0 0.145756,0.18624385 0,0.16599994 -0.176121,0.78951188 -0.111342,0.3927316 -0.172074,0.8664388 -0.06073,0.4737071 -0.06073,0.742951 0,0.3340242 0.04251,0.6639997 0.0081,0.062756 0.0081,0.091098 0,0.1012194 -0.06883,0.1740975 -0.06883,0.072878 -0.145756,0.072878 -0.107292,0 -0.149805,-0.1336097 -0.04049,-0.1336097 -0.04049,-0.431195 0,-0.6781705 0.161951,-1.6802433 0.163975,-1.00207288 0.259122,-1.1721216 0.09717,-0.17004873 0.196365,-0.17004873 z" />
      <path
         d="m 59.566296,4.0279655 c -0.01847,0.1389328 -0.141546,0.2818255 -0.340324,0.4667596 -0.0052,0.00482 -0.01028,0.00958 -0.0154,0.014288 -0.212586,0.1703427 -0.41814,0.252673 -0.627635,0.2471148 -0.180225,-0.00478 -0.318738,-0.069393 -0.418959,-0.1975297 -0.09876,-0.1277214 -0.151778,-0.3062575 -0.154473,-0.5354706 -0.0045,-0.3855651 0.104849,-0.7555078 0.351833,-1.101552 0.246791,-0.3457743 0.529981,-0.5114645 0.827463,-0.4940202 0.06144,0.0036 0.114823,0.02027 0.159845,0.049765 0,0 0,0 0,0 0,0 0,0 0,0 0.03013,0.017971 0.05685,0.040343 0.0801,0.067009 0.06462,0.07256 0.09047,0.1555074 0.08144,0.247913 -0.01528,0.1564339 -0.09022,0.3002088 -0.212751,0.4385862 0,0 0,0 0,0 0,0 0,10e-8 0,10e-8 0,0 0,0 0,0 -0.03759,0.0449 -0.08036,0.089023 -0.128223,0.1325158 -0.197102,0.1791094 -0.448933,0.3533628 -0.752061,0.5328168 -0.06223,0.035563 -0.09322,0.082639 -0.09371,0.1406482 -9.58e-4,0.1119845 0.02642,0.2020173 0.08083,0.2702001 0.0545,0.068294 0.135126,0.1033706 0.242848,0.1066216 0.186615,0.00563 0.378639,-0.07718 0.586754,-0.2474591 0,0 0,0 0,0 0.06277,-0.055525 0.128583,-0.1190296 0.198357,-0.1902656 0.04196,-0.040383 0.07336,-0.059049 0.0928,-0.056721 0.03675,0.0044 0.0503,0.040901 0.04127,0.108779 1e-6,2e-7 1e-6,3e-7 2e-6,5e-7 z m -1.210598,-0.38161 c 0.516307,-0.336049 0.801532,-0.5817879 0.813885,-0.7920315 0.0047,-0.080785 -0.02715,-0.1233853 -0.0961,-0.1270214 -0.11726,-0.00618 -0.254923,0.079035 -0.405776,0.2569646 -0.149794,0.1781981 -0.252618,0.3993548 -0.312012,0.6620883 z"
         id="path41307"
         inkscape:original-d="m 64.221079,2.8936363 q 0,0.2064877 -0.366414,0.4979998 -0.36439,0.2915121 -0.753073,0.2915121 -0.325927,0 -0.504073,-0.192317 -0.176122,-0.192317 -0.176122,-0.5364633 0,-0.5789754 0.390707,-1.1012679 0.390707,-0.5222925 0.854292,-0.5222925 0.15183,0 0.246976,0.099195 0.09717,0.099195 0.09717,0.238878 0,0.311756 -0.305683,0.5971949 -0.305683,0.2854389 -0.817854,0.5607559 -0.105268,0.054658 -0.105268,0.1417073 0,0.1680243 0.09717,0.2692438 0.09717,0.1012195 0.287463,0.1012195 0.435244,0 0.888707,-0.4818048 0.0668,-0.066805 0.10122,-0.066805 0.06478,0 0.06478,0.1032439 z M 62.814128,2.5778315 q 0.858342,-0.5101462 0.858342,-0.8198778 0,-0.1214634 -0.109317,-0.1214634 -0.186244,0 -0.421073,0.2732926 -0.232805,0.2732926 -0.327952,0.6680486 z" />
      <path
         d="m 60.119706,4.5939464 c -0.111355,0.2206956 -0.237043,0.5373654 -0.371735,0.9538888 -0.04033,0.1206876 -0.07961,0.2416831 -0.117814,0.3629822 -0.01698,0.051217 -0.04199,0.099781 -0.07398,0.1465714 -0.03225,0.048072 -0.05614,0.070767 -0.07317,0.067637 -0.02111,-0.00388 -0.04102,-0.029081 -0.06127,-0.075602 -0.01981,-0.045137 -0.02838,-0.079919 -0.02434,-0.1052004 0.01152,-0.072136 0.03658,-0.1732761 0.07725,-0.2979972 0.323694,-1.012415 0.613628,-1.7165877 0.79318,-2.5050641 0.01186,-0.05506 0.02371,-0.1101229 0.03554,-0.16519 0.02952,-0.1420228 0.07825,-0.2385396 0.149548,-0.2893636 0.071,-0.050581 0.144106,-0.066225 0.216712,-0.046883 0.03352,0.00893 0.0589,0.042303 0.07523,0.099821 0.01673,0.056342 0.01165,0.128731 -0.01419,0.2177112 -0.03646,0.1255801 -0.09346,0.271924 -0.169198,0.4435342 -0.0949,0.2125809 -0.147881,0.3435313 -0.1574,0.3738918 0.267493,-0.2883493 0.552203,-0.4841283 0.834744,-0.5895619 0.282468,-0.1054058 0.526247,-0.1098115 0.707822,-0.026451 0.128643,0.05906 0.212666,0.1579091 0.249657,0.2920842 0.03891,0.1338659 0.01965,0.2671607 -0.05183,0.4005847 -0.208097,0.3884693 -0.539185,0.6615725 -0.943851,0.8687318 -0.404666,0.2071594 -0.690432,0.2865338 -0.916124,0.2138408 -0.05613,-0.01808 -0.09508,-0.050714 -0.117803,-0.099253 -0.02177,-0.048288 -0.03665,-0.1282773 -0.04695,-0.2407052 -8e-6,-2.4e-6 -1.5e-5,-4.8e-6 -2.3e-5,-7.1e-6 z m 1.600438,-1.1447616 c -0.172804,-0.077534 -0.467534,-0.00675 -0.8315,0.2424138 -0.361754,0.2476488 -0.547765,0.4918122 -0.600574,0.677509 -0.01322,0.046498 -0.0044,0.097704 0.02474,0.1540624 0.02915,0.056401 0.0749,0.09449 0.138499,0.1157307 0.145106,0.04846 0.353045,-0.025164 0.662554,-0.2016455 0.310591,-0.1780367 0.539385,-0.3741927 0.660197,-0.6237676 0.04297,-0.088766 0.05834,-0.1651568 0.04486,-0.2297955 -0.01167,-0.06516 -0.04481,-0.1102943 -0.09878,-0.1345074 0,0 0,10e-8 -10e-7,10e-8 z"
         id="path41309"
         inkscape:original-d="m 65.034882,3.3450751 q -0.09919,0.3643902 -0.186244,1.0223168 l -0.05668,0.3826096 q -0.01417,0.080976 -0.0749,0.1599268 -0.06073,0.080976 -0.111341,0.080976 -0.06276,0 -0.143732,-0.06478 -0.07895,-0.062756 -0.07895,-0.1012195 0,-0.1113414 0.05061,-0.3077072 0.370463,-1.4960239 0.370463,-2.6276577 l -0.002,-0.1700487 q -0.004,-0.2186341 0.07693,-0.3178292 0.08098,-0.099195 0.186244,-0.099195 0.04859,0 0.09312,0.076927 0.04454,0.074902 0.04454,0.2145852 0,0.1963658 -0.04049,0.4757316 -0.05263,0.3522438 -0.05466,0.4048779 0.301634,-0.5263413 0.639707,-0.8219022 0.338074,-0.2955608 0.627561,-0.2955608 0.204464,0 0.344146,0.1538536 0.141708,0.1518292 0.141708,0.3785608 0,0.659951 -0.506098,1.1984387 -0.506097,0.5384876 -0.985877,0.5384876 -0.119439,0 -0.190293,-0.060732 -0.06883,-0.060732 -0.143732,-0.2206585 z m 1.257146,-1.6296336 q -0.285439,0 -0.706512,0.5344389 -0.421073,0.5344388 -0.421073,0.8320241 0,0.072878 0.083,0.1417073 0.083,0.068829 0.210537,0.068829 0.289487,0 0.666024,-0.4271462 0.376536,-0.4291706 0.376536,-0.8421461 0,-0.1477804 -0.06073,-0.2267316 -0.05871,-0.080976 -0.147781,-0.080976 z" />
      <path
         d="m 62.215971,5.1528177 c 0.197069,-0.124564 0.383132,-0.2258551 0.554331,-0.3053815 0,0 0,-10e-8 0,-10e-8 0.577816,-0.2728534 0.962086,-0.3459875 1.142173,-0.2225988 0.06194,0.042439 0.08395,0.117351 0.06722,0.2256182 -0.01669,0.1080418 -0.107698,0.3120948 -0.271246,0.6117785 -0.175778,0.3181191 -0.262534,0.5740785 -0.257064,0.7695579 0.0027,0.1000558 -0.0056,0.1664677 -0.02688,0.1996367 -0.01898,0.029625 -0.05272,0.046745 -0.101345,0.051078 -0.0486,0.00433 -0.09131,-0.00541 -0.127764,-0.029085 -0.08363,-0.054312 -0.123958,-0.1519374 -0.120257,-0.2916533 0.0045,-0.1409985 0.08294,-0.3401754 0.234284,-0.5983531 0.142109,-0.2446541 0.228632,-0.4090323 0.259028,-0.4934729 0.0304,-0.084443 0.02408,-0.1414422 -0.01926,-0.1713202 -0.09443,-0.06509 -0.458895,0.061606 -1.078694,0.3814944 0,0 0,1e-7 0,1e-7 -0.0584,0.031257 -0.118844,0.064798 -0.181116,0.1006737 -0.216005,0.1244375 -0.35362,0.2038573 -0.434035,0.2370702 -0.07727,0.031073 -0.131842,0.036979 -0.165254,0.016495 -0.03969,-0.024332 -0.06404,-0.059454 -0.07347,-0.1059801 -0.0094,-0.046472 -0.0015,-0.091998 0.02451,-0.1363325 0.01897,-0.032362 0.06366,-0.091675 0.13376,-0.1755339 0.554413,-0.6700873 1.115328,-1.3210322 1.656907,-1.9700059 0.125859,-0.1521208 0.228474,-0.2403857 0.307978,-0.2653298 0.08053,-0.024038 0.136043,-0.025227 0.165747,-0.00464 0.03902,0.02705 0.06796,0.062998 0.08663,0.107509 0.0052,0.014419 0.0091,0.030018 0.01174,0.046798 0.0098,0.06281 -0.0096,0.12868 -0.0574,0.1974164 -0.110325,0.1586705 -0.280197,0.3440235 -0.509488,0.5569673 0,0 -10e-7,10e-8 -10e-7,10e-8 -0.0675,0.059723 -0.139582,0.1216435 -0.216477,0.1863965 -0.169262,0.1435153 -0.37243,0.3363605 -0.604633,0.5795236 -0.230284,0.2411616 -0.367903,0.403875 -0.408604,0.4671625 -0.0088,0.013648 -0.0078,0.023892 0.0029,0.030759 0.0019,0.00125 0.0039,0.0025 0.0058,0.00375 z"
         id="path41311"
         inkscape:original-d="m 67.656467,2.9725874 q 0.753073,-1.3907556 1.240951,-1.3907556 0.129561,0 0.210536,0.1477805 0.08098,0.1477804 0.131586,0.6559022 0.05061,0.540512 0.228756,0.7814143 0.0911,0.1234878 0.0911,0.1821951 0,0.052634 -0.06073,0.097171 -0.06073,0.044537 -0.129561,0.044537 -0.157903,0 -0.279366,-0.1761219 -0.121463,-0.1781463 -0.155878,-0.623512 -0.03442,-0.421073 -0.07288,-0.550634 -0.03846,-0.1295609 -0.127537,-0.1295609 -0.21256,0 -0.856316,1.1113899 -0.192317,0.3319999 -0.283415,0.4352437 -0.0911,0.1012195 -0.166,0.1012195 -0.08907,0 -0.149805,-0.052634 -0.06073,-0.052634 -0.06073,-0.129561 0,-0.056683 0.03239,-0.218634 0.249,-1.2854874 0.392731,-2.54263332 0.03239,-0.29353649 0.103244,-0.39070719 0.07288,-0.0971707 0.121464,-0.0971707 0.08705,0 0.157902,0.0708536 0.07085,0.0708536 0.07085,0.19636579 0,0.37248768 -0.182195,1.02231672 -0.08907,0.321878 -0.188269,0.8178534 -0.09919,0.4959755 -0.09919,0.6133901 0,0.024293 0.02227,0.024293 z" />
      <path
         d="m 65.101189,6.7449048 c -0.2562,0.1685247 -0.504997,0.2645775 -0.725624,0.2968021 -0.221227,0.032312 -0.403531,0.00729 -0.537264,-0.067024 -0.09041,-0.05024 -0.145115,-0.1324599 -0.163102,-0.2448875 -0.018,-0.1125201 0.01065,-0.2272046 0.08268,-0.3446048 0.189297,-0.3085438 0.510327,-0.5434844 0.943329,-0.7734422 0.428147,-0.2282085 0.715449,-0.3114298 0.919964,-0.2300478 0.07364,0.029301 0.105764,0.1085249 0.100249,0.2428328 -0.0024,0.044513 0.0096,0.071335 0.03588,0.079837 0.07423,0.024033 0.100302,0.073739 0.07554,0.1538407 -0.01226,0.039676 -0.03409,0.093335 -0.06577,0.159504 -0.177294,0.371791 -0.292383,0.6057844 -0.347234,0.7697376 -0.103145,0.3083079 -0.107224,0.5138553 -0.0027,0.6144938 0.02942,0.029353 0.04826,0.057838 0.05608,0.08575 0,0 0,0 0,0 0,0 0,0 0,0 0.0055,0.018845 0.0057,0.037522 5.11e-4,0.056025 -0.0046,0.016574 -0.01435,0.031807 -0.02927,0.045613 0,0 0,0 0,0 0,0 0,1e-7 0,1e-7 -0.02115,0.019284 -0.05279,0.035323 -0.09506,0.047669 -0.0722,0.022271 -0.136858,0.023349 -0.192098,0.00422 -0.10667,-0.036938 -0.169241,-0.1365402 -0.183755,-0.2943421 -0.01461,-0.1587827 0.03024,-0.3574138 0.127644,-0.6019767 z m 0.332197,-1.0861919 c -0.124553,-0.052212 -0.33329,0.033551 -0.664539,0.2354753 -0.334414,0.2030338 -0.563932,0.3783747 -0.675227,0.5730661 -0.07677,0.1342944 -0.07313,0.2258502 0.01431,0.2733326 0.125875,0.068357 0.379042,0.032784 0.723382,-0.1372551 0.344903,-0.1703169 0.542433,-0.391726 0.631803,-0.6232503 0.06915,-0.179145 0.05751,-0.2847978 -0.02973,-0.3213686 z"
         id="path41313"
         inkscape:original-d="M 71.284174,2.8430265 Q 71.00076,3.2236118 70.723418,3.4139044 70.446077,3.604197 70.215296,3.604197 q -0.155878,0 -0.269243,-0.1315853 -0.113366,-0.1315854 -0.113366,-0.3380731 0,-0.5324144 0.475731,-1.1458045 0.475732,-0.6154144 0.94539,-0.6154144 0.170049,0 0.253049,0.1943414 0.02632,0.06478 0.083,0.06478 0.161951,0 0.161951,0.1255121 0,0.062756 -0.02024,0.1720731 -0.109317,0.5971949 -0.109317,0.8421461 0,0.4899023 0.186244,0.587073 0.08907,0.048585 0.08907,0.1194389 0,0.062756 -0.08705,0.1255122 -0.08705,0.06478 -0.168024,0.06478 -0.155878,0 -0.257097,-0.2145853 -0.10122,-0.2145853 -0.10122,-0.6113647 z M 71.160686,1.7032952 q -0.267219,0 -0.621487,0.5020486 -0.354268,0.5000242 -0.354268,0.8299997 0,0.2328048 0.153853,0.2328048 0.222683,0 0.617439,-0.4494145 0.394756,-0.4494144 0.394756,-0.8259509 0,-0.2894877 -0.190293,-0.2894877 z" />
      <path
         d="m 67.337099,6.3198792 c -0.0587,4.254e-4 -0.122273,0.046228 -0.195113,0.1366714 -0.07764,0.097963 -0.178422,0.2859158 -0.36236,0.6010568 -0.234775,0.4089747 -0.426751,0.635547 -0.498402,0.6818714 -0.07466,0.049361 -0.135965,0.069729 -0.181127,0.062331 -0.168334,-0.027574 -0.234726,-0.121518 -0.204093,-0.2709947 0.01305,-0.063694 0.04222,-0.1501867 0.08629,-0.262575 0.151016,-0.3847437 0.25462,-0.8007619 0.334248,-1.2444831 0.009,-0.050364 0.03522,-0.1028416 0.07692,-0.158576 0.04289,-0.056874 0.07743,-0.083515 0.105617,-0.079436 0.05048,0.00731 0.08398,0.032981 0.100668,0.078366 0.01657,0.045051 0.0179,0.1330284 0.0028,0.2624272 -0.01487,0.1274345 -0.07939,0.4173531 -0.207361,0.820082 -0.04353,0.1362069 -0.06868,0.2203039 -0.07411,0.258544 -0.003,0.021301 5.76e-4,0.032697 0.01086,0.034145 0.01925,0.00271 0.13554,-0.1423703 0.313978,-0.4485018 0.182398,-0.3152782 0.307982,-0.532414 0.417394,-0.666505 0.10647,-0.1304863 0.21522,-0.1967008 0.336325,-0.1988786 0.09632,-0.00173 0.176728,0.05063 0.243674,0.1588452 0.06769,0.1075845 0.126121,0.3081103 0.174289,0.5991156 0.05297,0.3315964 0.09842,0.5382862 0.131631,0.618437 0.03451,0.079034 0.08338,0.1162728 0.145626,0.111112 0.03933,-0.00326 0.08756,-0.022418 0.14388,-0.057741 0.0096,-0.00636 0.01682,-0.00979 0.02185,-0.010284 0.05384,-0.0053 0.08419,0.025314 0.09096,0.092563 0.0059,0.058972 -0.02476,0.1265572 -0.09434,0.2012271 -0.06975,0.073369 -0.159694,0.1148002 -0.268773,0.1225281 -0.111803,0.00792 -0.202027,-0.033058 -0.267658,-0.12099 C 67.656023,7.5503958 67.599723,7.3086114 67.555018,6.9126574 67.509108,6.5158589 67.438523,6.3191443 67.337099,6.3198792 Z"
         id="path41315"
         inkscape:original-d="m 73.73166,2.0231487 q -0.105268,0 -0.23078,0.1376585 -0.123488,0.1376585 -0.378561,0.6174388 -0.336049,0.6437559 -0.435244,0.7328291 -0.09717,0.089073 -0.161951,0.089073 -0.238878,0 -0.238878,-0.2307804 0,-0.097171 0.03239,-0.275317 0.111342,-0.6113656 0.111342,-1.2895361 0,-0.076927 0.06478,-0.1700488 0.06681,-0.095146 0.125512,-0.095146 0.105268,0 0.149805,0.06478 0.04454,0.064781 0.04454,0.2611463 0,0.2044633 -0.121464,0.842146 -0.04049,0.2105365 -0.04049,0.2672194 0,0.03239 0.0162,0.03239 0.03036,0 0.28139,-0.4838291 0.253048,-0.4919267 0.443341,-0.6923413 0.190293,-0.2004145 0.419049,-0.2004145 0.182195,0 0.295561,0.1659999 0.11539,0.166 0.168024,0.6052925 0.05668,0.5000242 0.101219,0.623512 0.04656,0.1214633 0.145756,0.1214633 0.06276,0 0.157903,-0.044536 0.01619,-0.0081 0.02429,-0.0081 0.08705,0 0.08705,0.1012195 0,0.089073 -0.119439,0.1902926 -0.119439,0.099195 -0.287463,0.099195 -0.172073,0 -0.267219,-0.1356341 -0.09313,-0.1376559 -0.147785,-0.730802 -0.05668,-0.5951706 -0.238878,-0.5951706 z" />
      <path
         d="m 69.129781,5.6337699 c 0.137522,-0.031182 0.269586,-0.059327 0.406825,-0.0857 0.134115,-0.02457 0.253336,-0.036271 0.351833,-0.038182 0.124628,-0.00242 0.207702,0.00945 0.240695,0.028909 0.03352,0.019766 0.04855,0.053235 0.04587,0.1002791 -0.0063,0.1097705 -0.103025,0.1620345 -0.273086,0.1745175 -0.217856,0.016015 -0.407932,0.051695 -0.566535,0.093529 -0.158521,0.041812 -0.238971,0.07619 -0.24832,0.091764 -0.009,0.015228 -0.01983,0.1807118 -0.02746,0.4968367 -0.0078,0.3126729 -0.0022,0.5199944 0.01358,0.6089306 0.02624,0.1474391 0.06113,0.2425871 0.10421,0.2860621 0.04279,0.042086 0.09774,0.056855 0.16297,0.045089 0.10064,-0.018155 0.205749,-0.1266551 0.350257,-0.3193673 0.05482,-0.078057 0.101277,-0.117269 0.134891,-0.1193939 0.04557,-0.00288 0.06847,0.027646 0.07049,0.089185 0.0031,0.094943 -0.06147,0.2247201 -0.175919,0.3929502 -0.115604,0.1696639 -0.238932,0.2725187 -0.405386,0.3032929 -0.274777,0.050801 -0.481611,-0.1148861 -0.542717,-0.4968574 -0.02211,-0.1381842 -0.02422,-0.3564551 -0.01377,-0.6560739 0.0094,-0.2953262 0.0064,-0.4786768 -0.0032,-0.5335815 -0.0035,-0.020102 -0.01921,-0.027635 -0.04674,-0.02272 -0.05854,0.016666 -0.115729,0.032932 -0.171701,0.048396 -0.140602,0.023308 -0.211612,-0.038521 -0.226953,-0.1748564 -0.0088,-0.077814 0.01406,-0.1202003 0.07245,-0.1294003 0.101921,-0.016061 0.211944,-0.036378 0.330117,-0.057806 0.02409,-0.00437 0.04341,-0.020987 0.05769,-0.049811 0.0144,-0.029061 0.02679,-0.1186193 0.03881,-0.2700732 0.0117,-0.1517351 0.0209,-0.3031414 0.02721,-0.4492949 0.0066,-0.1454997 0.05641,-0.2259065 0.15799,-0.2394811 0.06259,-0.00836 0.117051,0.00566 0.15991,0.041606 0.04299,0.036055 0.0669,0.071419 0.0717,0.1063272 0.0028,0.020559 -0.01311,0.1157121 -0.04018,0.2967258 -0.02139,0.1458492 -0.03961,0.2919348 -0.05552,0.4381998 z"
         id="path41317"
         inkscape:original-d="m 75.9261,1.5372952 q 0.208512,-0.016195 0.392732,-0.038463 0.182195,-0.020244 0.303658,-0.020244 0.153854,0 0.194341,0.028342 0.04049,0.028342 0.04049,0.099195 0,0.1639755 -0.228756,0.1781463 -0.293536,0.01822 -0.540512,0.05061 -0.246975,0.03239 -0.267219,0.054659 -0.01822,0.020244 -0.121464,0.4818047 -0.103244,0.4595365 -0.103244,0.597195 0,0.2226828 0.05871,0.2975852 0.05871,0.072878 0.176122,0.072878 0.174097,0 0.483829,-0.2611463 0.119439,-0.1072926 0.184219,-0.1072926 0.08705,0 0.08705,0.093122 0,0.145756 -0.28139,0.3785608 -0.279366,0.2307804 -0.572902,0.2307804 -0.489903,0 -0.489903,-0.576951 0,-0.2085121 0.10122,-0.6457803 0.0992,-0.4352437 0.0992,-0.5222925 0,-0.030366 -0.04859,-0.030366 l -0.210537,0.01822 q -0.259122,0 -0.259122,-0.2064877 0,-0.1174146 0.119439,-0.1174146 h 0.417024 q 0.04251,0 0.0749,-0.038463 0.03239,-0.038463 0.09515,-0.2570975 0.06276,-0.2206585 0.111342,-0.43524378 0.04858,-0.2125609 0.190292,-0.2125609 0.08705,0 0.135634,0.0607317 0.04859,0.0607317 0.04859,0.11336581 0,0.0283415 -0.07288,0.28948767 z" />
    </g>
  </g>
</svg>
